<svg width="188" height="188" viewBox="0 0 188 188" fill="none" xmlns="http://www.w3.org/2000/svg">
<path d="M2 20C2 10.0589 10.0589 2 20 2H168C177.941 2 186 10.0589 186 20V168C186 177.941 177.941 186 168 186H20C10.0589 186 2 177.941 2 168V20Z" fill="#E5D9FF" stroke="#7A3DFF" stroke-width="4"/>
<path d="M119.418 52.7868L119.415 52.782C116.616 48.5839 111.757 46.1001 106.772 46.1001H80.2283C75.2432 46.1001 70.3836 48.5839 67.5848 52.782L67.5816 52.7868L61.7803 61.5436H51.2717C42.8074 61.5436 36 68.351 36 76.8153V123.628C36 132.093 42.8074 138.9 51.2717 138.9H135.728C144.193 138.9 151 132.093 151 123.628V76.8153C151 68.351 144.193 61.5436 135.728 61.5436H125.22L119.418 52.7868ZM133.557 76.4023H133.612L133.667 76.3992C134.688 76.3425 135.6 77.1354 135.662 78.2534C135.722 79.3422 134.983 80.1655 133.974 80.2447H133.973H133.973H133.972H133.971H133.97H133.97H133.969H133.968H133.968H133.967H133.966H133.965H133.965H133.964H133.963H133.962H133.962H133.961H133.96H133.959H133.959H133.958H133.957H133.956H133.956H133.955H133.954H133.953H133.953H133.952H133.951H133.951H133.95H133.949H133.948H133.948H133.947H133.946H133.945H133.944H133.944H133.943H133.942H133.941H133.941H133.94H133.939H133.938H133.938H133.937H133.936H133.935H133.935H133.934H133.933H133.932H133.932H133.931H133.93H133.929H133.929H133.928H133.927H133.926H133.925H133.925H133.924H133.923H133.922H133.922H133.921H133.92H133.919H133.918H133.918H133.917H133.916H133.915H133.915H133.914H133.913H133.912H133.911H133.911H133.91H133.909H133.908H133.907H133.907H133.906H133.905H133.904H133.903H133.903H133.902H133.901H133.9H133.899H133.899H133.898H133.897H133.896H133.895H133.895H133.894H133.893H133.892H133.891H133.891H133.89H133.889H133.888H133.887H133.886H133.886H133.885H133.884H133.883H133.882H133.882H133.881H133.88H133.879H133.878H133.877H133.877H133.876H133.875H133.874H133.873H133.872H133.872H133.871H133.87H133.869H133.868H133.867H133.866H133.866H133.865H133.864H133.863H133.862H133.861H133.86H133.86H133.859H133.858H133.857H133.856H133.855H133.854H133.854H133.853H133.852H133.851H133.85H133.849H133.848H133.847H133.847H133.846H133.845H133.844H133.843H133.842H133.841H133.84H133.84H133.839H133.838H133.837H133.836H133.835H133.834H133.833H133.832H133.831H133.831H133.83H133.829H133.828H133.827H133.826H133.825H133.824H133.823H133.822H133.821H133.821H133.82H133.819H133.818H133.817H133.816H133.815H133.814H133.813H133.812H133.811H133.81H133.809H133.808H133.807H133.807H133.806H133.805H133.804H133.803H133.802H133.801H133.8H133.799H133.798H133.797H133.796H133.795H133.794H133.793H133.792H133.791H133.79H133.789H133.788H133.787H133.786H133.785H133.784H133.783H133.782H133.781H133.78H133.78H133.779H133.778H133.777H133.776H133.775H133.774H133.773H133.772H133.771H133.77H133.769H133.767H133.766H133.765H133.764H133.763H133.762H133.761H133.76H133.759H133.758H133.757H133.756H133.755H133.754H133.753H133.752H133.751H133.75H133.749H133.748H133.747H133.746H133.745H133.744H133.743H133.742H133.741H133.74H133.738H133.737H133.736H133.735H133.734H133.733H133.732H133.731H133.73H133.729H133.728H133.727H133.726H133.724H133.723H133.722H133.721H133.72H133.719H133.718H133.717H133.716H133.715H133.713H133.712H133.711H133.71H133.709H133.708H133.707H133.706H133.704H133.703H133.702H133.701H133.7H133.699H133.698H133.697H133.695H133.694H133.693H133.692H133.691H133.69H133.688H133.687H133.686H133.685H133.684H133.683H133.681H133.68H133.679H133.678H133.677H133.676H133.674H133.673H133.672H133.671H133.67H133.668H133.667H133.666H133.665H133.664H133.662H133.661H133.66H133.659H133.658H133.656H133.655H133.654H133.653H133.651H133.65H133.649H133.648H133.647H133.645H133.644H133.643H133.642H133.64H133.639H133.638H133.637H133.635H133.634H133.633H133.632H133.63H133.629H133.628H133.626H133.625H133.624H133.623H133.621H133.62H133.619H133.617H133.616H133.615H133.614H133.612H133.611H133.61H133.608H133.607H133.606H133.604H133.603H133.602H133.6H133.599H133.598H133.596H133.595H133.594H133.592H133.591H133.59H133.588H133.587H133.586H133.584H133.583H133.582H133.58H133.579H133.577H133.576H133.575H133.573H133.572H133.571H133.569H133.568H133.566H133.565H133.564H133.562H133.561H133.559H133.558H133.557H128.795C127.703 80.1604 126.933 79.2621 126.987 78.2575C127.048 77.2363 127.786 76.4842 128.798 76.4023H133.557ZM93.5 124.041C78.0752 124.041 65.5783 111.544 65.5783 96.1197C65.5783 80.7054 78.0647 68.3186 93.5 68.3186C108.925 68.3186 121.422 80.8155 121.422 96.2403C121.422 111.539 108.93 124.041 93.5 124.041Z" fill="white" stroke="#7A3DFF" stroke-width="4"/>
<path d="M93.5001 77.5903C83.226 77.5903 74.8501 85.9662 74.8501 96.2403C74.8501 106.533 83.245 114.77 93.5001 114.77C103.774 114.77 112.15 106.394 112.15 96.1197C112.15 85.8266 103.755 77.5903 93.5001 77.5903Z" fill="white" stroke="#7A3DFF" stroke-width="4"/>
</svg>
