<svg width="48" height="47" viewBox="0 0 48 47" fill="none" xmlns="http://www.w3.org/2000/svg">
<g clip-path="url(#clip0)">
<path d="M41.4431 0.0773926H6.50638C3.29511 0.0773926 0.683594 2.66052 0.683594 5.83687V40.3937C0.683594 43.5701 3.29511 46.1532 6.50638 46.1532H41.4431C44.6544 46.1532 47.2659 43.5701 47.2659 40.3937V5.83687C47.2659 2.66052 44.6544 0.0773926 41.4431 0.0773926Z" fill="#1095F4"/>
<path d="M39.9874 23.1152H32.7089V17.3558C32.7089 15.7661 34.0132 15.9159 35.6203 15.9159H38.5317V8.71655H32.7089C27.8848 8.71655 23.9748 12.584 23.9748 17.3558V23.1152H18.152V30.3146H23.9748V46.1531H32.7089V30.3146H37.076L39.9874 23.1152Z" fill="white"/>
</g>
<defs>
<clipPath id="clip0">
<rect x="0.683594" y="0.0773926" width="46.5823" height="46.0758" rx="10" fill="white"/>
</clipPath>
</defs>
</svg>
