<svg width="50" height="60" viewBox="0 0 50 60" fill="none" xmlns="http://www.w3.org/2000/svg">
<path d="M1.13636 22C1.13636 43 25 59 25 59C25 59 48.8636 43 48.8636 22C48.8636 10.402 38.1795 1 25 1C11.8205 1 1.13636 10.402 1.13636 22Z" fill="#30FFC2"/>
<path d="M25 39C14.3309 39 5.68182 31.3888 5.68182 22C5.68182 12.6112 14.3309 5 25 5C35.6691 5 44.3182 12.6112 44.3182 22C44.3182 31.3888 35.6691 39 25 39Z" fill="#E5D9FF"/>
<path d="M25 32C23.0864 32 22.1296 33 20.2159 33C16.3886 33 16.3886 29 18.3023 27C20.2159 25 21.1727 21 25 21C28.8273 21 29.7841 25 31.6977 27C33.6114 29 33.6114 33 29.7841 33C27.8705 33 26.9136 32 25 32V32Z" fill="white"/>
<path d="M29.9037 18.9014C28.0491 18.618 26.8937 16.6244 27.323 14.4484C27.7523 12.2724 29.6037 10.7381 31.4582 11.0214C33.3128 11.3047 34.4682 13.2984 34.0389 15.4744C33.6096 17.6504 31.7582 19.1847 29.9037 18.9014Z" fill="white"/>
<path d="M35.8557 25.8212C34.3575 25.4112 33.5963 23.7962 34.1554 22.2141C34.7145 20.632 36.3823 19.6818 37.8805 20.0918C39.3787 20.5019 40.14 22.1168 39.5809 23.6989C39.0218 25.281 37.354 26.2312 35.8557 25.8212Z" fill="white"/>
<path d="M15.9134 15.5042C15.4841 13.3282 16.6396 11.3346 18.4941 11.0512C20.3487 10.7679 22.2001 12.3022 22.6293 14.4782C23.0586 16.6542 21.9032 18.6479 20.0487 18.9312C18.1941 19.2146 16.3427 17.6802 15.9134 15.5042Z" fill="white"/>
<path d="M10.3982 23.7091C9.83905 22.127 10.6003 20.512 12.0985 20.102C13.5968 19.692 15.2646 20.6421 15.8237 22.2243C16.3828 23.8064 15.6215 25.4213 14.1233 25.8313C12.6251 26.2413 10.9573 25.2912 10.3982 23.7091Z" fill="white"/>
<path d="M46.6352 29.685L48.8432 30.158C49.192 28.824 49.4114 27.458 49.7 26.115C49.8284 24.746 49.9011 23.371 50 22H47.7273C47.6284 23.289 47.5614 24.58 47.4443 25.868C47.1682 27.139 46.9636 28.423 46.6352 29.685V29.685Z" fill="#30FFC2"/>
<path d="M4.76837e-07 22C4.76837e-07 9.84974 11.1929 0 25 0C38.8071 0 50 9.84974 50 22C50 22.5523 49.4912 23 48.8636 23C48.236 23 47.7273 22.5523 47.7273 22C47.7273 10.9543 37.5519 2 25 2C12.4481 2 2.27273 10.9543 2.27273 22C2.27273 40.254 21.1045 54.885 24.9886 57.708C29.9034 54.1013 34.288 49.9694 38.0409 45.408C41.9906 40.6804 44.9051 35.3468 46.6352 29.68C46.7855 29.158 47.3755 28.8322 47.975 28.94C48.2766 28.9938 48.54 29.1539 48.704 29.3831C48.868 29.6122 48.9183 29.8904 48.8432 30.153C47.0451 36.0717 44.0075 41.6431 39.8864 46.581C36.4453 50.7546 32.4948 54.5838 28.1057 58H34.0909C34.7185 58 35.2273 58.4477 35.2273 59C35.2273 59.5523 34.7185 60 34.0909 60H15.9091C15.2815 60 14.7727 59.5523 14.7727 59C14.7727 58.4477 15.2815 58 15.9091 58H21.8534C15.6545 53.217 4.76837e-07 39.416 4.76837e-07 22V22Z" fill="#333333"/>
<path d="M4.54544 22C4.54544 12.0589 13.7032 4 25 4C36.2967 4 45.4545 12.0589 45.4545 22C45.4545 31.9411 36.2967 40 25 40C13.7087 39.9884 4.55859 31.9363 4.54544 22ZM43.1818 22C43.1818 13.1634 35.0415 6 25 6C14.9584 6 6.81817 13.1634 6.81817 22C6.81817 30.8366 14.9584 38 25 38C35.0366 37.9895 43.1699 30.8322 43.1818 22Z" fill="#333333"/>
<path d="M23.0262 33.43C22.1428 33.7851 21.1868 33.979 20.2159 34C18.5788 34.0891 17.0463 33.2879 16.3523 31.98C15.5265 30.0719 15.9392 27.92 17.4307 26.356C17.9639 25.7424 18.4333 25.0878 18.833 24.4C20.075 22.442 21.6193 20 25 20C28.3807 20 29.925 22.442 31.1671 24.4C31.5659 25.0863 32.0341 25.7396 32.5659 26.352C34.0575 27.916 34.4701 30.0679 33.6443 31.976C32.9522 33.2844 31.4211 34.0872 29.7841 34C28.8132 33.979 27.8573 33.7851 26.9739 33.43C26.3555 33.1714 25.6841 33.0251 25 33C24.3159 33.0251 23.6446 33.1714 23.0262 33.43V33.43ZM27.8102 31.57C28.4287 31.8286 29.1 31.9749 29.7841 32C30.5314 32.0777 31.2531 31.7317 31.5841 31.137C32.0407 29.9363 31.7544 28.6131 30.8284 27.644C30.2004 26.9347 29.6488 26.1754 29.1807 25.376C27.8512 23.276 26.908 22 25 22C23.0921 22 22.1489 23.276 20.8193 25.376C20.3513 26.1754 19.7997 26.9347 19.1716 27.644C18.2456 28.6131 17.9593 29.9363 18.4159 31.137C18.747 31.7317 19.4686 32.0777 20.2159 32C20.9 31.9749 21.5714 31.8286 22.1898 31.57C23.0732 31.2149 24.0291 31.021 25 31C25.9709 31.021 26.9269 31.2149 27.8102 31.57V31.57Z" fill="#333333"/>
<path d="M30.3409 19.949C30.131 19.9491 29.9216 19.9334 29.7148 19.902C27.2466 19.525 25.6716 17.009 26.2068 14.293C26.742 11.577 29.1818 9.67 31.6557 10.048C32.9564 10.2806 34.055 11.0418 34.617 12.1C35.2275 13.2053 35.4179 14.4541 35.1602 15.662C34.6716 18.143 32.5829 19.949 30.3409 19.949ZM32.5932 13C32.3459 12.509 31.8555 12.1457 31.2636 12.015C31.1811 12.0023 31.0974 11.9959 31.0136 11.996C29.8773 11.996 28.7409 13.138 28.442 14.63C28.1273 16.23 28.8863 17.742 30.0988 17.93C31.3113 18.118 32.6045 16.917 32.9216 15.315C33.0921 14.5322 32.9772 13.7219 32.5932 13V13Z" fill="#333333"/>
<path d="M33.0773 21.922C33.6388 19.9108 35.9341 18.671 38.2261 19.141C40.4167 19.8973 41.5085 22.0635 40.675 24C40.3477 24.9629 39.6483 25.7949 38.6977 26.352C38.072 26.7191 37.3384 26.9179 36.5864 26.924C36.2276 26.924 35.8709 26.8761 35.5284 26.782C33.3363 26.0265 32.2433 23.8594 33.0773 21.922V21.922ZM36.2023 24.87C36.6352 24.9733 37.0979 24.8999 37.4625 24.67C37.9646 24.3657 38.3325 23.9187 38.5046 23.404C38.9393 22.5205 38.5228 21.4916 37.5511 21.049C37.4308 21.0164 37.3055 20.9999 37.1796 21C36.2394 21.0998 35.4689 21.7037 35.2477 22.514C34.8112 23.398 35.2287 24.4284 36.2023 24.87V24.87Z" fill="#333333"/>
<path d="M20.2477 19.9C20.0413 19.9314 19.8322 19.9472 19.6227 19.947C17.3784 19.947 15.2897 18.141 14.8 15.655C14.5444 14.4496 14.7339 13.2038 15.3409 12.1C15.9055 11.0429 17.0057 10.2837 18.3068 10.053C20.7863 9.67399 23.2216 11.581 23.7557 14.298C24.0133 15.5059 23.8229 16.7546 23.2125 17.86C22.646 18.914 21.5467 19.6704 20.2477 19.9V19.9ZM21.5193 14.632C21.225 13.142 20.0841 12 18.9477 12C18.8635 11.9999 18.7795 12.0062 18.6966 12.019C18.1049 12.1501 17.6147 12.5133 17.367 13.004C16.9847 13.7253 16.8702 14.5342 17.0397 15.316C17.3545 16.916 18.6397 18.116 19.8602 17.931C20.4525 17.8005 20.9432 17.4366 21.1897 16.945C21.574 16.2246 21.6894 15.4156 21.5193 14.634V14.632Z" fill="#333333"/>
<path d="M16.9228 21.921C17.7552 23.8578 16.6625 26.0235 14.4716 26.779C14.1291 26.8731 13.7724 26.921 13.4137 26.921C12.6617 26.9149 11.928 26.7161 11.3023 26.349C10.3524 25.7926 9.65304 24.9618 9.32503 24C8.49233 22.0638 9.58393 19.8983 11.7739 19.142C14.0653 18.6719 16.3602 19.9106 16.9228 21.921V21.921ZM14.7512 22.515C14.3853 21.479 13.3228 20.809 12.4489 21.05C11.4773 21.4926 11.0607 22.5215 11.4955 23.405C11.6676 23.9197 12.0355 24.3667 12.5375 24.671C12.9022 24.9008 13.3649 24.9743 13.7978 24.871C14.7709 24.4291 15.1879 23.3987 14.7512 22.515V22.515Z" fill="#333333"/>
</svg>
