<svg width="637" height="514" viewBox="0 0 637 514" fill="none" xmlns="http://www.w3.org/2000/svg">
<g clip-path="url(#clip0)">
<path d="M160.367 400.217C150.096 403.467 136.854 405.874 120.099 405.874C103.389 405.874 90.1747 403.48 79.914 400.244C42.4149 442.124 80.7186 483.285 92.745 494.444C94.1249 495.725 93.7069 497.891 91.954 498.666C87.5819 500.601 86.0595 503.677 85.6522 506.34C85.2304 509.105 87.5848 511.559 90.5546 511.559H108.187C115.615 511.559 118.964 506.967 119.862 500.179H120.25C121.148 506.967 124.497 511.559 131.925 511.559H149.749C152.719 511.559 155.073 509.105 154.651 506.34C154.245 503.677 152.723 500.601 148.35 498.666C146.597 497.891 146.18 495.725 147.559 494.444C159.589 483.282 197.907 442.106 160.367 400.217Z" fill="#F9BD55"/>
<path d="M121.062 429.527H119.052C111.337 429.527 105.083 435.781 105.083 443.496V443.717C105.083 443.717 118.992 473.519 120.057 493.617C121.121 473.518 135.03 443.717 135.03 443.717C135.153 435.917 128.864 429.527 121.062 429.527Z" fill="#F4DBCE"/>
<path d="M120.057 493.617C119.973 495.2 119.968 496.724 120.057 498.167C120.145 496.725 120.141 495.201 120.057 493.617Z" fill="#F4DBCE"/>
<path d="M187.778 355.547C194.463 355.547 201.982 349.366 201.982 349.366C191.995 347.7 189.941 337.994 184.593 325.529C206.584 314.542 201.009 280.771 197.983 267.973C197.592 266.315 195.454 265.893 194.432 267.255C191.796 270.765 186.186 275.585 174.481 278.286C163.177 280.895 156.819 286.715 153.435 291.254C137.531 284.852 120.1 285.795 120.1 285.795C120.1 285.795 102.667 284.852 86.7646 291.254C83.3779 286.715 77.0205 280.895 65.7158 278.286C54.0117 275.585 48.4014 270.765 45.7656 267.255C44.7422 265.893 42.6055 266.316 42.2139 267.973C39.1885 280.77 33.6133 314.542 55.6045 325.529C50.2559 337.993 48.2021 347.699 38.2148 349.366C38.2148 349.366 45.7344 355.547 52.4189 355.547C52.4189 355.547 49.0771 363.493 39.8857 365.259C39.8857 365.259 44.8994 374.088 60.7744 374.088C60.7744 374.088 55.7607 381.152 49.9121 382.917C49.9121 382.917 68.2939 405.873 120.099 405.873C171.903 405.873 190.285 382.917 190.285 382.917C184.437 381.152 179.423 374.088 179.423 374.088C195.298 374.088 200.312 365.259 200.312 365.259C191.12 363.493 187.778 355.547 187.778 355.547Z" fill="#F9BD55"/>
<path d="M120.603 363.137C120.603 363.137 120.572 373.122 109.027 373.962C110.054 383.749 114.842 391.158 120.603 391.158C126.363 391.158 131.151 383.749 132.178 373.962C120.633 373.122 120.603 363.137 120.603 363.137Z" fill="#52565B"/>
<path d="M112.894 385.991C114.959 389.205 117.651 391.159 120.603 391.159C123.555 391.159 126.246 389.205 128.312 385.991C126.247 382.772 123.556 380.816 120.603 380.816C117.649 380.815 114.958 382.772 112.894 385.991Z" fill="#FD605B"/>
<path d="M170.417 497.446C179.631 492.606 209.562 473.684 175.83 446.532C172.332 469.32 154.966 487.571 147.56 494.443C146.18 495.724 146.597 497.89 148.351 498.665C152.723 500.6 154.245 503.676 154.652 506.339C155.073 509.104 152.719 511.558 149.749 511.558H169.326C172.335 511.558 174.667 509.045 174.214 506.246C173.872 504.136 172.822 501.778 170.21 499.941C169.295 499.299 169.419 497.971 170.417 497.446Z" fill="#F9BD55"/>
<path d="M208.199 403.524C201.355 402.55 195.104 407.654 194.786 414.559C193.979 432.044 188.896 444.317 182.722 452.865C186.828 457.258 189.288 461.4 190.51 465.26C206.492 451.215 214.294 431.284 217.888 418.32C219.786 411.474 215.232 404.525 208.199 403.524Z" fill="#F9BD55"/>
<path d="M197.983 267.974C197.958 267.866 197.907 267.779 197.868 267.684C195.742 271.991 187.8 286.438 175.053 290.688C160.013 295.701 168.368 306.562 168.368 306.562L164.19 309.069C164.19 309.069 166.697 320.767 176.724 320.767L185.248 325.166C206.452 313.832 200.978 280.639 197.983 267.974Z" fill="#F98080"/>
<path d="M65.1445 290.687C52.3974 286.438 44.4551 271.99 42.3291 267.683C42.29 267.779 42.2392 267.866 42.2138 267.973C39.2197 280.638 33.7451 313.831 54.9492 325.166L63.4736 320.767C73.5 320.767 76.0068 309.069 76.0068 309.069L71.8291 306.562C71.8291 306.562 80.1845 295.7 65.1445 290.687Z" fill="#F98080"/>
<path d="M128.951 352.854C128.951 356.923 124.671 362.676 120.603 362.676C116.534 362.676 112.254 356.923 112.254 352.854C112.254 348.786 116.534 351.872 120.603 351.872C124.671 351.872 128.951 348.786 128.951 352.854Z" fill="#52565B"/>
<path d="M120.111 435.355C126.078 435.355 130.915 430.518 130.915 424.552C130.915 418.585 126.078 413.748 120.111 413.748C114.145 413.748 109.308 418.585 109.308 424.552C109.308 430.518 114.145 435.355 120.111 435.355Z" fill="#F9E63A"/>
<path d="M120.099 405.874C105.497 405.874 93.5645 404.046 83.9404 401.426C86.667 408.955 98.2969 414.9 113.09 416.352C114.979 414.732 117.429 413.748 120.111 413.748C122.794 413.748 125.244 414.732 127.133 416.352C141.932 414.899 153.564 408.95 156.285 401.417C146.656 404.042 134.716 405.874 120.099 405.874Z" fill="#039BE6"/>
<path d="M69.8875 497.446C60.6736 492.606 30.743 473.684 64.4744 446.532C67.9725 469.32 85.3387 487.571 92.7449 494.443C94.1248 495.724 93.7078 497.89 91.9539 498.665C87.5818 500.6 86.0594 503.676 85.6531 506.339C85.2312 509.104 87.5857 511.558 90.5555 511.558H70.9783C67.9695 511.558 65.6375 509.045 66.0906 506.246C66.4324 504.136 67.4822 501.778 70.0945 499.941C71.0096 499.299 70.8855 497.971 69.8875 497.446Z" fill="#F9BD55"/>
<path d="M169.327 514H149.75C148.401 514 147.309 512.907 147.309 511.558C147.309 510.21 148.401 509.117 149.75 509.117C150.55 509.117 151.287 508.792 151.774 508.225C152.043 507.911 152.343 507.392 152.239 506.707C151.837 504.071 150.242 502.171 147.363 500.897C145.765 500.19 144.644 498.768 144.363 497.094C144.09 495.46 144.664 493.799 145.899 492.653C153.045 486.022 170.03 468.22 173.417 446.161C173.55 445.298 174.133 444.572 174.946 444.256C175.76 443.939 176.681 444.082 177.36 444.63C189.208 454.166 194.744 463.833 193.817 473.361C192.556 486.324 179.603 495.15 172.835 498.913C174.882 500.751 176.183 503.124 176.625 505.855C176.944 507.826 176.372 509.843 175.056 511.39C173.644 513.049 171.556 514 169.327 514ZM156.785 509.117H169.326C170.121 509.117 170.854 508.793 171.336 508.226C171.564 507.96 171.927 507.396 171.804 506.637C171.485 504.671 170.505 503.135 168.805 501.938C167.686 501.15 167.069 499.874 167.156 498.522C167.245 497.146 168.039 495.936 169.28 495.284C174.824 492.372 187.84 484.359 188.956 472.889C189.634 465.925 185.763 458.608 177.44 451.104C172.509 472.694 156.287 489.674 149.22 496.232C149.176 496.298 149.198 496.371 149.338 496.432C154.897 498.891 156.608 502.976 157.065 505.971C157.228 507.034 157.126 508.111 156.785 509.117ZM171.552 499.608C171.553 499.607 171.553 499.607 171.552 499.608V499.608Z" fill="black"/>
<path d="M90.5555 514H70.9783C68.7488 514 66.6619 513.049 65.2508 511.393C63.9344 509.846 63.3621 507.828 63.6814 505.858C64.1238 503.126 65.4236 500.753 67.4715 498.915C60.7029 495.153 47.7498 486.326 46.4881 473.364C45.5604 463.834 51.0975 454.167 62.9451 444.631C63.6238 444.083 64.5447 443.94 65.3592 444.257C66.1727 444.574 66.7566 445.299 66.8885 446.162C70.2752 468.221 87.2606 486.024 94.407 492.655C95.6424 493.801 96.2166 495.461 95.9432 497.095C95.6629 498.77 94.5408 500.192 92.9432 500.899C90.0652 502.172 88.4705 504.073 88.0682 506.708C87.9637 507.394 88.2635 507.911 88.533 508.226C89.0193 508.793 89.7576 509.117 90.5574 509.117C91.9061 509.117 92.9988 510.21 92.9988 511.559C92.9988 512.908 91.9041 514 90.5555 514ZM62.8641 451.106C54.5408 458.611 50.6688 465.926 51.3475 472.891C52.4647 484.362 65.4793 492.373 71.0232 495.285C72.2645 495.937 73.0574 497.148 73.1473 498.523C73.2342 499.874 72.6189 501.152 71.4988 501.94C69.7986 503.135 68.8182 504.671 68.4998 506.638C68.3768 507.398 68.741 507.96 68.9676 508.228C69.449 508.794 70.1814 509.118 70.9773 509.118H83.5184C83.1775 508.112 83.077 507.035 83.2391 505.972C83.6951 502.979 85.407 498.893 90.9656 496.434C91.1053 496.372 91.1277 496.3 91.1258 496.283C84.0193 489.679 67.7957 472.697 62.8641 451.106Z" fill="black"/>
<path d="M131.925 514C126.724 514 122.846 512.05 120.397 508.204C115.942 501.21 116.735 487.961 122.753 468.823C127.114 454.952 132.761 442.805 132.817 442.684C133.388 441.463 134.84 440.935 136.062 441.504C137.283 442.073 137.812 443.526 137.241 444.748C131.188 457.722 117.1 493.94 124.515 505.581C126.03 507.96 128.453 509.116 131.924 509.116C133.272 509.116 134.365 510.209 134.365 511.558C134.365 512.906 133.273 514 131.925 514Z" fill="black"/>
<path d="M108.188 514C106.84 514 105.747 512.907 105.747 511.558C105.747 510.21 106.84 509.117 108.188 509.117C111.659 509.117 114.083 507.961 115.597 505.582C123.012 493.94 108.925 457.721 102.871 444.749C102.302 443.527 102.829 442.074 104.051 441.505C105.273 440.935 106.725 441.463 107.295 442.684C107.351 442.805 112.998 454.953 117.359 468.824C123.377 487.961 124.17 501.211 119.716 508.205C117.267 512.05 113.388 514 108.188 514Z" fill="black"/>
<path d="M190.51 467.702C190.291 467.702 190.07 467.673 189.855 467.613C189.061 467.391 188.431 466.783 188.183 465.997C187.003 462.27 184.566 458.412 180.94 454.532C180.143 453.68 180.061 452.382 180.743 451.436C187.76 441.722 191.664 429.277 192.348 414.447C192.53 410.494 194.39 406.774 197.449 404.24C200.534 401.685 204.58 400.546 208.544 401.108C212.594 401.684 216.2 403.977 218.44 407.398C220.677 410.817 221.334 415.035 220.242 418.974C216.327 433.094 208.271 452.906 192.123 467.096C191.671 467.491 191.096 467.702 190.51 467.702ZM185.832 452.672C188.241 455.456 190.124 458.262 191.46 461.058C205.013 447.872 212.014 430.373 215.536 417.668C216.253 415.084 215.821 412.315 214.354 410.072C212.884 407.825 210.515 406.321 207.857 405.942C205.251 405.574 202.593 406.323 200.564 408.001C198.532 409.684 197.347 412.053 197.227 414.672C196.533 429.664 192.702 442.436 185.832 452.672Z" fill="black"/>
<path d="M120.098 408.315C67.7234 408.315 48.7869 385.418 48.0066 384.443C47.4998 383.811 47.3406 382.968 47.5808 382.193C47.8221 381.42 48.4305 380.814 49.2068 380.581C51.6248 379.851 53.95 377.97 55.7029 376.226C42.5291 374.582 37.9705 366.832 37.7625 366.465C37.3738 365.78 37.3387 364.951 37.6687 364.236C37.9988 363.522 38.6521 363.01 39.4246 362.861C43.8865 362.004 46.739 359.472 48.3767 357.431C42.3269 355.857 36.9392 351.477 36.6648 351.252C35.9256 350.644 35.6092 349.66 35.8562 348.734C36.1033 347.81 36.8689 347.114 37.8123 346.957C44.4939 345.842 46.9021 340.552 50.9197 330.514C51.4275 329.245 51.9471 327.947 52.4998 326.609C43.4568 321.192 38.2771 311.459 37.0945 297.638C36.0769 285.738 38.3758 273.593 39.8377 267.411C40.2381 265.721 41.5408 264.449 43.2381 264.095C44.9441 263.737 46.6648 264.386 47.7176 265.789C50.1375 269.01 55.3191 273.381 66.2644 275.906C77.1473 278.418 83.7439 283.782 87.5603 288.328C102.719 282.722 118.38 283.27 120.098 283.35C121.82 283.269 137.48 282.723 152.637 288.328C156.453 283.782 163.05 278.418 173.932 275.906C184.878 273.381 190.06 269.01 192.479 265.788C193.533 264.386 195.255 263.739 196.959 264.095C198.656 264.449 199.959 265.721 200.359 267.411C201.82 273.593 204.12 285.738 203.102 297.638C201.92 311.459 196.74 321.192 187.697 326.609C188.25 327.947 188.769 329.245 189.277 330.514C193.295 340.552 195.703 345.843 202.385 346.957C203.329 347.114 204.094 347.81 204.341 348.734C204.588 349.659 204.272 350.644 203.532 351.252C203.258 351.477 197.87 355.857 191.82 357.431C193.458 359.472 196.309 362.004 200.771 362.861C201.545 363.01 202.198 363.522 202.527 364.236C202.856 364.951 202.822 365.78 202.433 366.465C202.225 366.832 197.667 374.582 184.493 376.226C186.246 377.97 188.571 379.851 190.989 380.581C191.765 380.815 192.374 381.42 192.615 382.193C192.855 382.968 192.696 383.811 192.189 384.443C191.409 385.419 172.472 408.315 120.098 408.315ZM54.1053 383.678C60.366 389.318 80.0418 403.433 120.098 403.433C160.335 403.433 179.891 389.332 186.105 383.687C181.213 380.773 177.615 375.76 177.431 375.501C176.902 374.757 176.834 373.779 177.253 372.968C177.672 372.156 178.509 371.647 179.422 371.647C188.327 371.647 193.402 368.73 195.978 366.504C188.525 363.428 185.663 356.815 185.526 356.493C185.21 355.739 185.291 354.877 185.743 354.195C186.195 353.514 186.959 353.105 187.777 353.105C190.775 353.105 194.092 351.571 196.577 350.106C190.566 346.88 187.824 340.026 184.742 332.328C183.991 330.451 183.214 328.51 182.347 326.491C181.838 325.303 182.343 323.923 183.5 323.345C203.28 313.463 198.918 283.048 195.816 269.441C192.713 273.219 186.656 277.982 175.028 280.665C164.392 283.119 158.478 288.571 155.389 292.713C154.726 293.602 153.551 293.932 152.52 293.519C137.333 287.404 120.397 288.224 120.227 288.232C120.141 288.236 120.052 288.236 119.966 288.232C119.799 288.224 102.858 287.404 87.6726 293.519C86.6433 293.932 85.4656 293.602 84.8035 292.713C81.7146 288.571 75.8006 283.119 65.1648 280.665C53.5359 277.981 47.4793 273.219 44.3767 269.441C41.2752 283.049 36.9129 313.464 56.6932 323.345C57.8504 323.923 58.3562 325.303 57.8455 326.491C56.9793 328.51 56.2019 330.451 55.451 332.328C52.3699 340.026 49.6277 346.88 43.616 350.106C46.1014 351.571 49.4178 353.105 52.4168 353.105C53.2342 353.105 53.9978 353.514 54.451 354.195C54.9031 354.877 54.9842 355.739 54.6678 356.493C54.532 356.816 51.6687 363.43 44.2137 366.505C46.7849 368.726 51.8621 371.647 60.7732 371.647C61.6863 371.647 62.5232 372.156 62.9422 372.968C63.3611 373.779 63.2928 374.757 62.7635 375.501C62.5818 375.759 58.991 380.764 54.1053 383.678Z" fill="black"/>
<path d="M185.25 327.608C184.378 327.608 183.535 327.14 183.095 326.317C182.459 325.128 182.908 323.649 184.097 323.014C192.458 318.544 197.222 309.749 198.257 296.873C198.905 288.805 197.943 280.592 196.841 274.472C192.822 280.833 185.708 289.71 175.825 293.003C171.802 294.345 169.41 296.176 168.716 298.446C167.744 301.623 170.278 305.04 170.303 305.074C170.728 305.626 170.896 306.334 170.767 307.017C170.638 307.701 170.221 308.298 169.624 308.656L167.068 310.19C168.065 312.977 170.757 318.326 176.724 318.326C178.072 318.326 179.165 319.419 179.165 320.767C179.165 322.116 178.072 323.209 176.724 323.209C167.232 323.209 162.814 314.295 161.804 309.581C161.585 308.56 162.039 307.513 162.935 306.975L165.038 305.714C164.03 303.63 163.014 300.398 164.047 297.019C165.23 293.15 168.673 290.241 174.281 288.372C186.115 284.428 193.652 270.713 195.68 266.603C196.106 265.741 197 265.22 197.958 265.244C198.919 265.279 199.77 265.875 200.132 266.765C200.18 266.868 200.288 267.103 200.361 267.412C201.8 273.499 204.072 285.471 203.125 297.264C201.949 311.904 196.322 322.016 186.401 327.319C186.032 327.515 185.639 327.608 185.25 327.608Z" fill="black"/>
<path d="M149.749 514H131.925C127.805 514 122.939 512.739 120.056 507.663C117.173 512.74 112.307 514 108.188 514H90.5554C88.3308 514 86.2429 513.055 84.8279 511.407C83.5232 509.889 82.9441 507.907 83.24 505.972C83.697 502.977 85.408 498.892 90.9675 496.433C91.1062 496.372 91.1287 496.3 91.1267 496.283C84.2879 489.927 71.9226 476.798 65.4734 459.727C57.1853 437.787 61.4314 417.226 78.0955 398.616C78.7341 397.901 79.7341 397.627 80.6482 397.916C92.2537 401.577 105.527 403.433 120.098 403.433C134.705 403.433 148.005 401.567 159.63 397.89C160.546 397.599 161.545 397.873 162.184 398.588C178.866 417.202 183.122 437.768 174.835 459.716C168.386 476.792 156.017 489.925 149.219 496.233C149.176 496.299 149.198 496.372 149.338 496.433C154.896 498.892 156.607 502.977 157.064 505.972C157.36 507.907 156.781 509.889 155.476 511.407C154.061 513.055 151.974 514 149.749 514ZM119.862 497.737H120.25C121.474 497.737 122.51 498.644 122.671 499.858C123.518 506.262 126.373 509.117 131.926 509.117H149.75C150.55 509.117 151.287 508.792 151.773 508.225C152.043 507.911 152.343 507.392 152.239 506.707C151.837 504.071 150.242 502.171 147.363 500.897C145.764 500.19 144.643 498.768 144.363 497.094C144.09 495.46 144.664 493.8 145.898 492.653C157.825 481.587 193.745 442.672 159.576 403.014C147.845 406.532 134.573 408.314 120.098 408.314C105.659 408.314 92.4168 406.541 80.7068 403.04C46.5759 442.689 82.4832 481.591 94.406 492.653C95.6414 493.8 96.2156 495.46 95.9422 497.094C95.6619 498.768 94.5408 500.189 92.9431 500.897C90.0642 502.171 88.4695 504.071 88.0672 506.707C87.9627 507.392 88.2625 507.911 88.533 508.225C89.0193 508.792 89.7566 509.117 90.5564 509.117H108.189C113.742 509.117 116.596 506.262 117.443 499.858C117.602 498.644 118.637 497.737 119.862 497.737Z" fill="black"/>
<path d="M120.111 437.797C112.808 437.797 106.866 431.855 106.866 424.552C106.866 417.248 112.808 411.307 120.111 411.307C127.415 411.307 133.356 417.248 133.356 424.552C133.356 431.855 127.415 437.797 120.111 437.797ZM120.111 416.189C115.5 416.189 111.749 419.94 111.749 424.552C111.749 429.163 115.5 432.914 120.111 432.914C124.723 432.914 128.474 429.163 128.474 424.552C128.474 419.94 124.723 416.189 120.111 416.189Z" fill="black"/>
<path d="M127.134 418.793C126.554 418.793 125.989 418.586 125.545 418.205C124.028 416.905 122.1 416.19 120.112 416.19C118.125 416.19 116.195 416.906 114.679 418.206C114.174 418.639 113.516 418.844 112.852 418.782C96.966 417.224 84.716 410.737 81.6447 402.258C81.3342 401.4 81.5265 400.442 82.1447 399.771C82.7619 399.1 83.7033 398.832 84.5812 399.07C95.214 401.965 107.163 403.434 120.099 403.434C133.044 403.434 145.003 401.963 155.644 399.061C156.523 398.822 157.462 399.092 158.08 399.762C158.698 400.432 158.892 401.39 158.582 402.247C155.517 410.731 143.266 417.222 127.372 418.782C127.292 418.789 127.213 418.793 127.134 418.793ZM89.6379 405.313C94.2707 409.489 102.639 412.716 112.362 413.819C114.613 412.192 117.326 411.307 120.112 411.307C122.9 411.307 125.612 412.192 127.862 413.819C137.593 412.715 145.966 409.485 150.596 405.306C141.207 407.305 130.98 408.316 120.099 408.316C109.232 408.315 99.0158 407.308 89.6379 405.313Z" fill="black"/>
<path d="M120.111 437.797C112.808 437.797 106.866 431.855 106.866 424.552C106.866 423.203 107.959 422.11 109.308 422.11H130.915C132.264 422.11 133.356 423.203 133.356 424.552C133.356 431.855 127.415 437.797 120.111 437.797ZM112.112 426.993C113.159 430.417 116.35 432.914 120.111 432.914C123.873 432.914 127.063 430.417 128.11 426.993H112.112Z" fill="black"/>
<path d="M119.987 429.939C118.639 429.939 117.546 428.847 117.546 427.498V424.552C117.546 423.203 118.639 422.11 119.987 422.11C121.336 422.11 122.429 423.203 122.429 424.552V427.498C122.429 428.847 121.336 429.939 119.987 429.939Z" fill="black"/>
<path d="M120.603 365.117C115.045 365.117 109.812 358.209 109.812 352.855C109.812 351.197 110.334 349.949 111.361 349.146C113.053 347.82 115.175 348.348 117.228 348.857C118.368 349.14 119.548 349.432 120.603 349.432C121.657 349.432 122.837 349.14 123.978 348.857C126.029 348.348 128.151 347.821 129.844 349.146C130.872 349.949 131.393 351.198 131.393 352.855C131.393 358.209 126.16 365.117 120.603 365.117ZM114.718 353.286C115.018 356.284 118.287 360.236 120.603 360.236C122.918 360.236 126.188 356.285 126.487 353.286C126.057 353.371 125.547 353.498 125.151 353.596C123.86 353.916 122.253 354.315 120.603 354.315C118.952 354.315 117.345 353.916 116.054 353.596C115.658 353.498 115.148 353.371 114.718 353.286Z" fill="black"/>
<path d="M133.232 376.444C132.84 376.444 132.439 376.43 132.03 376.4C118.356 375.424 118.162 363.267 118.161 363.144C118.157 361.795 119.247 360.699 120.596 360.695H120.603C121.942 360.695 123.031 361.775 123.044 363.114C123.059 363.921 123.451 370.892 132.378 371.53C134.76 371.698 136.583 371.181 137.927 369.939C140.525 367.54 140.591 363.171 140.591 363.127C140.602 361.783 141.725 360.727 143.042 360.701C144.386 360.706 145.474 361.793 145.474 363.138C145.474 363.401 145.426 369.629 141.272 373.497C139.169 375.454 136.468 376.444 133.232 376.444Z" fill="black"/>
<path d="M107.974 376.444C104.737 376.444 102.037 375.455 99.9336 373.496C95.7803 369.629 95.7324 363.399 95.7324 363.137C95.7324 361.788 96.8252 360.695 98.1738 360.695C99.5225 360.695 100.615 361.788 100.615 363.137C100.615 363.171 100.681 367.54 103.279 369.939C104.623 371.181 106.438 371.704 108.828 371.53C118.033 370.873 118.161 363.445 118.162 363.13C118.166 361.784 119.259 360.695 120.604 360.695H120.61C121.959 360.699 123.049 361.795 123.045 363.144C123.045 363.266 122.851 375.423 109.176 376.4C108.767 376.429 108.366 376.444 107.974 376.444Z" fill="black"/>
<path d="M120.602 393.6C113.554 393.6 107.797 385.629 106.599 374.216C106.53 373.559 106.731 372.901 107.155 372.395C107.579 371.888 108.191 371.574 108.849 371.526C117.763 370.877 118.146 363.904 118.161 363.11C118.185 361.778 119.272 360.704 120.602 360.704H120.621C121.955 360.714 123.032 361.782 123.044 363.114C123.059 363.923 123.453 370.879 132.355 371.526C133.014 371.574 133.626 371.888 134.05 372.395C134.474 372.901 134.675 373.559 134.605 374.216C133.408 385.629 127.65 393.6 120.602 393.6ZM111.789 376.051C113.102 383.316 116.759 388.718 120.602 388.718C124.446 388.718 128.102 383.316 129.416 376.051C124.925 375.146 122.224 372.875 120.602 370.484C118.98 372.875 116.281 375.146 111.789 376.051Z" fill="black"/>
<path d="M220.784 364.136C220.594 364.136 220.4 364.113 220.207 364.066C188.529 356.387 160.337 358.217 160.057 358.236C158.704 358.324 157.546 357.313 157.453 355.969C157.36 354.624 158.376 353.458 159.721 353.365C160.009 353.347 188.956 351.467 221.357 359.321C222.668 359.639 223.473 360.959 223.155 362.269C222.885 363.386 221.885 364.136 220.784 364.136Z" fill="black"/>
<path d="M218.181 388.037C217.801 388.037 217.416 387.948 217.055 387.761C188.139 372.716 160.33 367.74 160.053 367.691C158.724 367.459 157.836 366.194 158.068 364.865C158.301 363.537 159.564 362.649 160.894 362.881C161.18 362.931 189.732 368.04 219.309 383.429C220.506 384.051 220.971 385.525 220.348 386.722C219.913 387.559 219.061 388.037 218.181 388.037Z" fill="black"/>
<path d="M21.4032 364.136C20.3026 364.136 19.3036 363.386 19.0321 362.268C18.7147 360.958 19.5194 359.638 20.8299 359.32C53.2323 351.466 82.1776 353.345 82.4666 353.364C83.8114 353.457 84.827 354.623 84.7342 355.968C84.6424 357.312 83.4764 358.323 82.1317 358.236C81.8485 358.217 53.619 356.395 21.9803 364.066C21.787 364.113 21.5926 364.136 21.4032 364.136Z" fill="black"/>
<path d="M24.007 388.037C23.1251 388.037 22.2745 387.558 21.839 386.722C21.2169 385.525 21.6818 384.052 22.878 383.429C52.4562 368.04 81.0089 362.93 81.2931 362.881C82.6241 362.65 83.8859 363.537 84.1183 364.865C84.3507 366.193 83.462 367.458 82.1349 367.691C81.8566 367.74 54.0109 372.735 25.131 387.761C24.7726 387.948 24.3868 388.037 24.007 388.037Z" fill="black"/>
<path d="M134.905 345.403C133.561 345.403 132.468 344.315 132.464 342.969C132.447 337.803 136.637 333.588 141.802 333.571C144.332 333.557 146.66 334.529 148.436 336.294C150.21 338.057 151.192 340.407 151.201 342.909C151.205 344.257 150.116 345.354 148.768 345.358C148.765 345.358 148.762 345.358 148.76 345.358C147.415 345.358 146.322 344.27 146.318 342.924C146.315 341.725 145.845 340.601 144.994 339.756C144.148 338.916 143.025 338.453 141.833 338.453C141.828 338.453 141.823 338.453 141.818 338.453C139.345 338.461 137.339 340.48 137.347 342.953C137.351 344.301 136.262 345.397 134.913 345.402C134.91 345.403 134.907 345.403 134.905 345.403Z" fill="black"/>
<path d="M105.8 345.381C104.451 345.381 103.358 344.288 103.358 342.939C103.358 340.466 101.346 338.454 98.8721 338.454C96.3984 338.454 94.3867 340.467 94.3867 342.939C94.3867 344.288 93.2939 345.381 91.9453 345.381C90.5967 345.381 89.5039 344.288 89.5039 342.939C89.5039 337.773 93.707 333.571 98.8721 333.571C104.038 333.571 108.241 337.774 108.241 342.939C108.241 344.288 107.148 345.381 105.8 345.381Z" fill="black"/>
<path d="M54.9473 327.608C54.5586 327.608 54.1651 327.516 53.7979 327.319C43.877 322.016 38.249 311.904 37.0733 297.265C36.126 285.47 38.3985 273.498 39.8379 267.412C39.9111 267.104 40.0195 266.868 40.0703 266.755C40.4326 265.864 41.2813 265.273 42.2422 265.238C43.1983 265.205 44.0928 265.74 44.5186 266.603C46.5469 270.712 54.086 284.427 65.917 288.371C71.5254 290.24 74.9688 293.15 76.1514 297.019C77.1846 300.397 76.168 303.63 75.1592 305.713L77.2627 306.975C78.1582 307.512 78.6123 308.56 78.3936 309.58C77.3838 314.294 72.9649 323.208 63.4736 323.208C62.125 323.208 61.0322 322.115 61.0322 320.767C61.0322 319.418 62.125 318.325 63.4736 318.325C69.4004 318.325 72.1143 312.965 73.1231 310.186L70.5733 308.656C69.9766 308.298 69.5606 307.702 69.4307 307.018C69.3008 306.333 69.4697 305.626 69.8945 305.074C69.9141 305.049 72.4658 301.611 71.4756 298.424C70.7725 296.164 68.3828 294.34 64.374 293.003C54.4932 289.71 47.377 280.832 43.3574 274.471C42.2559 280.591 41.293 288.805 41.9414 296.874C42.9766 309.75 47.7403 318.544 56.1016 323.014C57.2901 323.649 57.7393 325.129 57.1035 326.317C56.6621 327.14 55.8184 327.608 54.9473 327.608Z" fill="black"/>
<path d="M120.602 393.6C116.914 393.6 113.446 391.366 110.84 387.311C110.323 386.507 110.323 385.477 110.839 384.673C113.444 380.611 116.912 378.374 120.603 378.374C124.295 378.374 127.763 380.611 130.368 384.673C130.884 385.477 130.883 386.508 130.367 387.312C127.759 391.366 124.291 393.6 120.602 393.6ZM115.907 385.989C117.011 387.325 118.634 388.717 120.602 388.717C122.571 388.717 124.194 387.325 125.299 385.989C124.195 384.651 122.573 383.257 120.602 383.257C118.633 383.257 117.01 384.651 115.907 385.989Z" fill="black"/>
</g>
<g clip-path="url(#clip1)">
<path d="M495.922 302.219C494.051 300.344 491.504 299.289 488.852 299.289C488.75 299.309 484.906 299.094 481.781 302.219L474.715 309.285L451.738 286.312C502.441 215.238 494.73 117.195 432.289 54.7578C361.953 -15.5781 248.102 -15.5898 177.758 54.7578C107.422 125.09 107.41 238.945 177.758 309.289C240.043 371.578 338.047 379.57 409.309 328.738L432.285 351.715L425.219 358.781C421.316 362.684 421.312 369.02 425.219 372.926L551.641 499.336C571.176 518.883 602.797 518.895 622.336 499.34C641.883 479.809 641.891 448.184 622.336 428.645L495.922 302.219ZM446.426 337.574L425.016 316.164C427.504 313.934 429.938 311.645 432.289 309.289C434.645 306.938 436.934 304.504 439.164 302.02L460.574 323.43L446.426 337.574ZM191.898 295.148C129.375 232.629 129.367 131.426 191.898 68.8984C254.418 6.375 355.621 6.36719 418.148 68.8984C480.531 131.277 480.848 232.457 418.148 295.148C354.742 358.562 253.566 356.82 191.898 295.148ZM488.852 323.43L517.129 351.711L474.711 394.129L446.43 365.852L488.852 323.43ZM608.195 485.199C596.477 496.93 577.512 496.934 565.785 485.199L488.852 408.27L531.27 365.852L608.199 442.789C619.926 454.504 619.938 473.469 608.195 485.199Z" fill="#7A3DFF"/>
<path d="M404.012 83.043C349.328 28.3594 260.738 28.3281 206.031 83.0352C151.461 137.617 151.461 226.43 206.031 281.016C260.746 335.727 349.285 335.73 404.004 281.016C458.586 226.43 458.59 137.621 404.012 83.043ZM389.863 266.871C342.969 313.766 267.078 313.777 220.172 266.875C173.398 220.086 173.398 143.961 220.172 97.1719C267.043 50.3047 342.984 50.293 389.871 97.1836C436.652 143.965 436.648 220.086 389.863 266.871Z" fill="#9564FF"/>
<path d="M177.054 277.203L177.035 277.178L177.014 277.156C175.362 275.416 174.441 272.953 174.097 270.188C173.754 267.426 173.991 264.402 174.617 261.595C175.244 258.785 176.253 256.221 177.428 254.372C178.016 253.448 178.634 252.72 179.252 252.227C179.772 251.813 180.271 251.581 180.739 251.518C183.061 255.109 184.278 257.065 184.97 258.177C185.064 258.328 185.148 258.463 185.224 258.585C185.544 259.097 185.732 259.392 185.886 259.593C186.058 259.816 186.192 259.928 186.371 260.074C186.378 260.081 186.386 260.087 186.394 260.093C187.06 260.638 188.982 262.209 199.117 274.321C209.083 286.232 213.954 295.759 215.658 302.27C216.512 305.532 216.559 307.989 216.1 309.598C215.872 310.398 215.526 310.965 215.117 311.329C214.714 311.687 214.225 311.872 213.652 311.872C213.095 311.872 212.243 311.583 211.105 310.962C209.988 310.352 208.661 309.459 207.179 308.335C204.215 306.088 200.669 302.95 196.99 299.403C189.631 292.307 181.782 283.61 177.054 277.203Z" fill="white" stroke="white"/>
</g>
<path d="M292 137.406V148.344H281.062V137.406H292ZM281.062 201.664V217.25H292V201.664H281.062ZM313.875 261V250.062H302.938V239.125H292V261H313.875ZM335.75 179.789H302.938V190.727H335.75V179.789ZM335.75 201.664H351.062V190.727H335.75V201.664ZM335.75 217.25V228.188H362V201.664H351.062V217.25H335.75ZM302.938 121H292V137.406H302.938V121ZM292 170.219H302.938V148.344H292V159.281H281.062V190.727H292V170.219ZM222 179.789V201.664H232.938V190.727H249.344V179.789H222ZM302.938 201.664V190.727H292V201.664H302.938ZM324.812 212.602H335.75V201.664H324.812V212.602ZM351.062 190.727H362V179.789H351.062V190.727ZM313.875 201.664H302.938V217.25H292V228.188H313.875V201.664ZM281.062 239.125H292V228.188H281.062V239.125ZM313.875 228.188V239.125H335.75V228.188H313.875ZM346.688 250.062V239.125H335.75V250.062H346.688ZM362 261V250.062H346.688V261H362ZM324.812 261H335.75V250.062H324.812V261ZM271.219 190.727V179.789H260.281V190.727H249.344V201.664H281.062V190.727H271.219ZM271.219 170.219H222V121H271.219V170.219ZM260.281 131.938H232.938V159.281H260.281V131.938ZM252.078 140.141H241.141V151.078H252.078V140.141ZM362 121V170.219H312.781V121H362ZM351.062 131.938H323.719V159.281H351.062V131.938ZM342.859 140.141H331.922V151.078H342.859V140.141ZM222 211.781H271.219V261H222V211.781ZM232.938 250.062H260.281V222.719H232.938V250.062ZM241.141 241.859H252.078V230.922H241.141V241.859Z" fill="#30FFC2"/>
<defs>
<clipPath id="clip0">
<rect width="250" height="250" fill="white" transform="translate(0 264)"/>
</clipPath>
<clipPath id="clip1">
<rect width="512" height="512" fill="white" transform="translate(125 2)"/>
</clipPath>
</defs>
</svg>
