<svg width="50" height="50" viewBox="0 0 50 50" fill="none" xmlns="http://www.w3.org/2000/svg">
<path d="M49.9882 46.4533L46.0601 24.8116C46.0209 24.5955 45.8869 24.4084 45.6949 24.3017L35.808 18.8027C35.6797 18.7312 35.5358 18.7028 35.3945 18.7137L37.1933 41.9176L37.133 41.9446L48.9655 47.2529C49.0617 47.296 49.1641 47.3173 49.2659 47.3173C49.4272 47.3173 49.5869 47.2642 49.7183 47.1614C49.9329 46.9938 50.0367 46.7212 49.9882 46.4533Z" fill="#44C868"/>
<path d="M24.9998 24.0599L14.888 18.7932C14.7668 18.73 14.6324 18.7042 14.5001 18.7131C14.5352 18.711 14.5704 18.7112 14.6054 18.7139L12.8066 41.9179L24.6993 47.2532C24.7953 47.2962 24.8978 47.3176 24.9998 47.3176V24.0599Z" fill="#44C868"/>
<path d="M14.6055 18.7142C14.4642 18.7032 14.3203 18.7317 14.192 18.8031L4.30498 24.3021C4.11298 24.4088 3.979 24.5958 3.93984 24.8119L0.0118045 46.4537C-0.0368284 46.7215 0.067078 46.9941 0.281629 47.1619C0.413172 47.2647 0.572841 47.3178 0.733974 47.3178C0.835829 47.3178 0.938271 47.2966 1.03446 47.2534L12.8025 41.974L14.6055 18.7142Z" fill="#4CE166"/>
<path d="M35.3945 18.7144C35.2972 18.7219 35.201 18.7478 35.1118 18.7942L25 24.0609V47.3185C25 47.3185 25 47.3185 25.0001 47.3185C25.1021 47.3185 25.2047 47.2972 25.3006 47.2542L37.1933 41.9188L35.3945 18.7144Z" fill="#4CE166"/>
<path d="M2.74961 31.3707L1.95166 35.7671L13.7675 29.5263L14.0418 25.9873L14.0873 25.4004L2.74961 31.3707Z" fill="#FFDB56"/>
<path d="M13.8736 28.1538L13.7673 29.5261L1.95146 35.7669L0.0118045 46.4537C-0.0368284 46.7215 0.067078 46.9942 0.281629 47.162C0.413172 47.2648 0.572841 47.3178 0.733974 47.3178C0.835829 47.3178 0.938271 47.2966 1.03446 47.2535L12.8025 41.974L13.8736 28.1538Z" fill="#A8EEFC"/>
<path d="M25.0028 26.9607L14.0869 25.3999L13.7671 29.5258L24.9998 46.5843V40.3814L18.297 29.8269L25.0028 30.6289V26.9607Z" fill="#FFBB24"/>
<path d="M44.9167 23.8692L40.1672 21.2275L35.6709 22.2781L35.7271 23.0043L35.9492 25.8689L44.9167 23.8692Z" fill="#FFBB24"/>
<path d="M36.3479 31.0135L35.9221 25.5204L35.6708 22.2783L25.0029 26.9611V30.6293L31.9713 27.599L36.3479 31.0135Z" fill="#FFDB56"/>
<path d="M49.9883 46.4538L49.0017 41.0177L35.9492 25.8691L36.348 31.0135L49.7338 47.1484C49.9373 46.9797 50.0357 46.7149 49.9883 46.4538Z" fill="#FFBB24"/>
<path d="M25.0469 2.68213C19.3864 2.68213 14.7812 7.2835 14.7812 12.9394C14.7812 16.438 16.4423 20.1943 19.7184 24.1037C22.1245 26.975 24.498 28.8218 24.5979 28.8991C24.7301 29.0013 24.8885 29.0524 25.047 29.0524C25.2054 29.0524 25.3639 29.0013 25.4961 28.8991C25.5959 28.8218 27.9695 26.975 30.3756 24.1037C33.6517 20.1943 35.3127 16.4381 35.3127 12.9394C35.3125 7.2835 30.7074 2.68213 25.0469 2.68213ZM28.8487 12.9393C28.8487 15.0371 27.1465 16.7379 25.0469 16.7379C22.9473 16.7379 21.2451 15.0372 21.2451 12.9393C21.2451 10.8413 22.9473 9.14064 25.0469 9.14064C27.1465 9.14064 28.8487 10.8414 28.8487 12.9393Z" fill="#FF4A4A"/>
<path d="M25.0473 2.68213C24.5986 2.68213 24.1567 2.71123 23.7231 2.76729C28.7606 3.41836 32.6648 7.73175 32.6648 12.9394C32.6648 16.438 31.0037 20.1943 27.7276 24.1037C26.1803 25.9501 24.6476 27.3719 23.7232 28.1729C24.2363 28.6174 24.5627 28.8715 24.5982 28.8991C24.7305 29.0013 24.8889 29.0524 25.0474 29.0524C25.2058 29.0524 25.3643 29.0013 25.4965 28.8991C25.5963 28.8218 27.9698 26.975 30.376 24.1037C33.6521 20.1943 35.3131 16.4381 35.3131 12.9394C35.3129 7.2835 30.7077 2.68213 25.0473 2.68213Z" fill="#E7343F"/>
<path d="M25.3006 47.2531L29.723 45.2691L25 40.3813V47.3175C25 47.3175 25 47.3175 25.0001 47.3175C25.1021 47.3175 25.2046 47.2963 25.3006 47.2531Z" fill="#FFDB56"/>
<path d="M46.0602 24.8119C46.021 24.5959 45.887 24.4088 45.695 24.3021L44.9167 23.8691L35.9492 25.8689L49.0016 41.0174L46.0602 24.8119Z" fill="#1EA4E9"/>
<path d="M24.9999 47.3181C25 47.3181 25 47.3181 24.9999 47.3181V46.5849L13.7673 29.5264L12.8066 41.9185L24.6993 47.2538C24.7953 47.2969 24.8978 47.3181 24.9999 47.3181Z" fill="#1EA4E9"/>
</svg>
