<svg width="524" height="524" viewBox="0 0 524 524" fill="none" xmlns="http://www.w3.org/2000/svg">
<path d="M404.528 296.265H268.296C265.01 296.265 262.346 298.899 262.346 302.148C262.346 305.398 265.01 308.032 268.296 308.032H404.528C407.814 308.032 410.478 305.398 410.478 302.148C410.478 298.899 407.814 296.265 404.528 296.265Z" fill="black"/>
<path d="M404.528 322.568H268.296C265.01 322.568 262.346 325.048 262.346 328.106C262.346 331.164 265.01 333.644 268.296 333.644H404.528C407.814 333.644 410.478 331.164 410.478 328.106C410.478 325.048 407.814 322.568 404.528 322.568Z" fill="black"/>
<path d="M404.528 348.18H268.296C265.01 348.18 262.346 350.659 262.346 353.717C262.346 356.776 265.01 359.255 268.296 359.255H404.528C407.814 359.255 410.478 356.776 410.478 353.717C410.478 350.659 407.814 348.18 404.528 348.18Z" fill="black"/>
<path d="M404.528 373.791H268.296C265.01 373.791 262.346 376.27 262.346 379.329C262.346 382.387 265.01 384.866 268.296 384.866H404.528C407.814 384.866 410.478 382.387 410.478 379.329C410.478 376.27 407.814 373.791 404.528 373.791Z" fill="black"/>
<path d="M404.528 399.403H268.296C265.01 399.403 262.346 401.883 262.346 404.941C262.346 407.999 265.01 410.479 268.296 410.479H404.528C407.814 410.479 410.478 407.999 410.478 404.941C410.478 401.883 407.814 399.403 404.528 399.403Z" fill="black"/>
<path d="M404.528 425.015H268.296C265.01 425.015 262.346 427.649 262.346 430.898C262.346 434.148 265.01 436.782 268.296 436.782H404.528C407.814 436.782 410.478 434.148 410.478 430.898C410.478 427.649 407.814 425.015 404.528 425.015Z" fill="black"/>
<path d="M40.7583 489.884H402.602C406.841 489.884 410.278 486.447 410.278 482.208C410.278 477.969 406.841 474.532 402.602 474.532H40.7583C36.5192 474.532 33.0825 477.969 33.0825 482.208C33.0825 486.447 36.5192 489.884 40.7583 489.884Z" fill="black"/>
<path d="M33.2261 449.185C33.2261 453.421 37.6989 456.856 43.216 456.856H231.59C237.107 456.856 241.58 453.421 241.58 449.185V283.862C241.58 279.625 237.107 276.19 231.59 276.19H43.216C37.6989 276.19 33.2261 279.625 33.2261 283.862V449.185ZM53.2059 291.534H221.6V441.513H53.2059V291.534Z" fill="black"/>
<path d="M410.278 103.823C410.278 99.5837 406.841 96.147 402.602 96.147H40.7583C36.5192 96.147 33.0825 99.5837 33.0825 103.823V242.357C33.0825 246.596 36.5192 250.033 40.7583 250.033H402.602C406.841 250.033 410.278 246.596 410.278 242.357V103.823ZM394.926 234.682H48.4341V111.499H394.926V234.682Z" fill="black"/>
<path d="M71.0518 216.95C75.2909 216.95 78.7276 213.514 78.7276 209.275V161.663L113.578 212.129C115.888 215.466 119.72 216.891 123.338 215.76C127.044 214.603 129.439 211.099 129.438 206.761L128.761 136.832C128.72 132.617 125.292 129.229 121.088 129.229C121.063 129.229 121.038 129.229 121.012 129.229C116.773 129.27 113.37 132.74 113.411 136.979L113.881 185.552L77.3664 132.677C75.4577 129.913 71.9739 128.712 68.7665 129.712C65.559 130.711 63.375 133.68 63.375 137.039V209.274C63.376 213.514 66.8127 216.95 71.0518 216.95Z" fill="black"/>
<path d="M154.219 216.95H184.712C188.951 216.95 192.388 213.514 192.388 209.275C192.388 205.035 188.951 201.599 184.712 201.599H161.895V180.766H182.464C186.703 180.766 190.139 177.329 190.139 173.09C190.139 168.851 186.703 165.414 182.464 165.414H161.895V144.582H184.712C188.951 144.582 192.388 141.145 192.388 136.906C192.388 132.667 188.951 129.23 184.712 129.23H154.219C149.98 129.23 146.543 132.667 146.543 136.906V209.275C146.543 213.514 149.98 216.95 154.219 216.95Z" fill="black"/>
<path d="M350.532 216.95C365.118 216.95 377.359 207.693 379.636 194.939C381.34 185.395 376.938 172.902 359.473 166.459C350.364 163.099 341.9 159.435 339.539 158.4C337.669 156.971 336.767 154.731 337.114 152.308C337.335 150.771 338.431 147.02 343.831 145.393C354.774 142.099 364.767 150.051 365.01 150.249C368.255 152.948 373.074 152.52 375.792 149.285C378.519 146.04 378.1 141.199 374.854 138.47C374.194 137.915 358.471 124.951 339.403 130.694C329.928 133.548 323.228 140.994 321.917 150.127C320.692 158.664 324.391 166.874 331.57 171.554C331.909 171.775 332.265 171.969 332.635 172.133C333.052 172.319 342.977 176.737 354.159 180.862C361.55 183.588 365.327 187.735 364.522 192.241C363.7 196.841 358.243 201.599 350.531 201.599C342.959 201.599 335.657 198.531 331 193.392C328.153 190.251 323.3 190.011 320.158 192.859C317.017 195.706 316.778 200.559 319.625 203.701C327.145 211.998 338.698 216.95 350.532 216.95Z" fill="black"/>
<path d="M224.365 209.677C224.438 210.043 224.536 210.403 224.662 210.755C225.98 214.466 229.5 216.949 233.434 216.949H233.496C237.456 216.923 240.972 214.387 242.248 210.638C242.27 210.571 242.292 210.504 242.313 210.436L256.999 162.988L271.62 210.447C271.652 210.552 271.687 210.656 271.724 210.759C273.043 214.468 276.562 216.949 280.495 216.949H280.559C284.518 216.923 288.034 214.386 289.308 210.638C289.417 210.319 289.504 209.994 289.569 209.664L303.725 138.537C304.552 134.379 301.853 130.338 297.695 129.51C293.539 128.685 289.497 131.382 288.669 135.54L279.225 182.991L264.331 134.645L264.287 134.659C263.539 132.373 261.738 130.471 259.265 129.705C255.215 128.454 250.917 130.719 249.663 134.768L234.735 182.996L225.324 135.416C224.501 131.257 220.459 128.552 216.305 129.376C212.147 130.199 209.442 134.237 210.265 138.394L224.365 209.677Z" fill="black"/>
<path d="M497.173 0.0184219C496.999 0.0112578 496.329 0 496.162 0H354.713C350.474 0 347.037 3.4367 347.037 7.67578C347.037 11.9149 350.474 15.3516 354.713 15.3516H471.286C469.392 19.1086 468.325 23.3508 468.325 27.8375V202.129C468.325 206.368 471.762 209.805 476.001 209.805C480.24 209.805 483.677 206.368 483.677 202.129V27.8375C483.624 21.089 489.454 15.2574 496.397 15.3393C502.864 15.4222 508.643 21.3448 508.648 28.3185V477.536C508.648 494.692 494.004 508.648 476.005 508.648C476.004 508.648 476.004 508.648 476.003 508.648C476.002 508.648 476.002 508.648 476.001 508.648C458.005 508.648 443.363 494.692 443.363 477.536V419.579H455.327C470.959 419.579 483.677 406.861 483.677 391.229V237.949C483.677 233.71 480.24 230.273 476.001 230.273C471.762 230.273 468.325 233.71 468.325 237.949V391.229C468.325 398.397 462.494 404.227 455.327 404.227H443.363V92.4471C443.363 76.8151 430.641 64.0979 415.004 64.0979H57.7423V27.8375C57.7423 20.9528 63.3385 15.3516 70.218 15.3516H318.893C323.132 15.3516 326.569 11.9149 326.569 7.67578C326.569 3.4367 323.132 0 318.893 0H70.218C54.8736 0 42.3908 12.488 42.3908 27.8375V64.0979H28.3492C12.7172 64.0979 0 76.8151 0 92.4471V318.77C0 323.009 3.4367 326.446 7.67578 326.446C11.9149 326.446 15.3516 323.009 15.3516 318.77V92.4471C15.3516 85.28 21.1821 79.4494 28.3492 79.4494H415.004C422.176 79.4494 428.012 85.28 428.012 92.4471V477.536C428.012 489.491 432.699 500.406 440.388 508.648H47.9992C29.997 508.648 15.3516 494.692 15.3516 477.536V354.59C15.3516 350.351 11.9149 346.915 7.67578 346.915C3.4367 346.915 0 350.351 0 354.59V477.536C0 503.157 21.5321 524 47.9992 524H476.001H476.003C476.003 524 476.004 524 476.005 524C502.469 524 524 503.156 524 477.536V28.3185C524 12.9844 512.215 0.552656 497.173 0.0184219Z" fill="black"/>
<g clip-path="url(#clip0)">
<path d="M90.6129 296.956V301.898C90.6057 306.68 91.2644 311.442 92.5722 316.043L95.4394 326.126L117.329 304.279L113.617 302.417C106.477 298.835 98.6009 296.966 90.6129 296.956Z" fill="#F7A116"/>
<path d="M155.081 302.474L151.356 304.326L173.2 326.231L176.104 316.157C177.424 311.56 178.098 306.801 178.105 302.017V297.075C170.116 297.063 162.233 298.912 155.081 302.474Z" fill="#F7A116"/>
<path d="M96.5704 399.169C92.1676 398.626 88.2525 396.106 85.9336 392.324C83.6159 388.542 83.1471 383.91 84.6602 379.74C86.0974 376.116 85.8114 372.034 83.8805 368.647L83.4212 367.882C72.6823 369.256 64.565 378.279 64.33 389.102C64.0938 399.925 71.8113 409.293 82.479 411.134C93.1478 412.975 103.558 406.735 106.963 396.459C103.973 398.659 100.253 399.629 96.5704 399.169Z" fill="#EE9200"/>
<path d="M180.362 425.89L184.604 405.878C185.959 399.482 184.358 392.817 180.246 387.736C176.134 382.654 169.95 379.697 163.413 379.687L105.082 379.606C98.5442 379.598 92.3517 382.538 88.2254 387.609C84.1003 392.68 82.4804 399.34 83.8178 405.739L88.0047 425.771H85.5742C78.8631 425.762 73.4148 431.195 73.4053 437.907L102.571 437.945L165.763 438.035L194.929 438.074C194.938 431.363 189.505 425.915 182.793 425.905L180.362 425.89Z" fill="#F7A116"/>
<path d="M195.589 438.166C195.589 431.454 190.149 426.014 183.437 426.014H181.006L185.221 405.996C186.95 397.806 183.802 389.354 177.138 384.29C165.384 415.188 135.521 430.569 110.548 438.166H195.589Z" fill="#F58F00"/>
<path d="M178.576 350.67H188.298C188.298 357.381 182.858 362.822 176.146 362.822H166.424C166.424 356.11 171.865 350.67 178.576 350.67Z" fill="#7A3DFF"/>
<path d="M166.424 362.822H176.146C182.858 362.822 188.298 368.262 188.298 374.975H178.576C171.865 374.975 166.424 369.533 166.424 362.822Z" fill="#7A3DFF"/>
<path d="M166.424 348.239H103.232V357.99L108.093 438.166H127.537V401.709H142.119V438.166H161.563L166.424 357.99V348.239Z" fill="#FFB531"/>
<path d="M166.424 350.67H103.232V357.99C103.805 367.896 109.08 376.929 117.427 382.294C120.666 384.37 123.988 386.315 127.391 388.129C127.539 388.206 127.683 388.293 127.831 388.371L134.684 391.988L141.976 387.904L149.812 383.53L150.784 382.98C159.87 377.798 165.745 368.399 166.424 357.961V350.67Z" fill="#348FD9"/>
<path d="M166.424 350.67H103.232V357.99C103.805 367.896 109.08 376.929 117.427 382.294C120.666 384.37 123.988 386.315 127.391 388.129C127.539 388.206 127.683 388.293 127.831 388.371L134.684 391.988L141.976 387.904L149.812 383.53L150.784 382.98C159.87 377.798 165.745 368.399 166.424 357.961V350.67Z" fill="#7A3DFF"/>
<path d="M146.008 370.113H123.647C121.439 370.113 119.296 369.362 117.571 367.981L99.5861 353.585C97.2826 351.741 95.9416 348.949 95.9404 345.998V327.961C95.9404 325.382 96.9658 322.909 98.7886 321.086L112.536 307.338C114.359 305.514 116.833 304.49 119.412 304.49H150.245C152.824 304.49 155.297 305.514 157.12 307.338L170.867 321.086C172.691 322.909 173.715 325.382 173.715 327.961V345.998C173.715 348.949 172.374 351.741 170.07 353.585L152.084 367.979C150.36 369.359 148.217 370.113 146.008 370.113Z" fill="#FFB531"/>
<path d="M155.487 331.226C147.875 331.362 141.145 336.204 138.596 343.378H131.061C128.512 336.204 121.782 331.362 114.169 331.226C106.687 331.351 100.038 336.034 97.3991 343.037C95.8255 347.014 97.0348 351.552 100.379 354.218L117.571 367.982C119.296 369.362 121.439 370.113 123.648 370.113H146.008C148.217 370.113 150.36 369.362 152.085 367.982L169.288 354.22C172.632 351.555 173.841 347.016 172.268 343.04C169.627 336.032 162.974 331.348 155.487 331.226Z" fill="#FFD896"/>
<path d="M132.398 333.656H137.258C139.943 333.656 142.119 335.833 142.119 338.517C142.119 341.202 139.943 343.378 137.258 343.378H132.398C129.713 343.378 127.537 341.202 127.537 338.517C127.537 335.833 129.713 333.656 132.398 333.656Z" fill="#2E3E51"/>
<path d="M142.119 353.1C142.119 357.127 138.855 360.392 134.828 360.392C130.801 360.392 127.537 357.127 127.537 353.1L134.828 350.67L142.119 353.1Z" fill="#E94F4F"/>
<path d="M122.675 326.365C122.675 329.049 120.499 331.226 117.815 331.226C115.13 331.226 112.954 329.049 112.954 326.365C112.954 323.68 115.13 321.504 117.815 321.504C120.499 321.504 122.675 323.68 122.675 326.365Z" fill="#2E3E51"/>
<path d="M156.702 326.365C156.702 329.049 154.526 331.226 151.841 331.226C149.157 331.226 146.98 329.049 146.98 326.365C146.98 323.68 149.157 321.504 151.841 321.504C154.526 321.504 156.702 323.68 156.702 326.365Z" fill="#2E3E51"/>
<path d="M115.384 311.782H120.245V316.643H115.384V311.782Z" fill="#FFD896"/>
<path d="M149.411 311.782H154.272V316.643H149.411V311.782Z" fill="#FFD896"/>
<path d="M149.819 344.459L146.767 349.043C146.217 349.86 145.232 350.268 144.266 350.078L137.258 348.676V343.378H132.397V348.676L125.391 350.078C124.425 350.272 123.439 349.862 122.892 349.043L119.837 344.459L115.792 347.157L118.848 351.739C120.484 354.201 123.447 355.428 126.346 354.844L134.828 353.144L143.311 354.844C146.209 355.435 149.177 354.206 150.809 351.739L153.863 347.157L149.819 344.459Z" fill="#2E3E51"/>
</g>
<defs>
<clipPath id="clip0">
<rect width="141.21" height="141.21" fill="white" transform="translate(59.2207 296.956)"/>
</clipPath>
</defs>
</svg>
