<svg width="811" height="718" viewBox="0 0 811 718" fill="none" xmlns="http://www.w3.org/2000/svg">
<path d="M552.703 65.1011C660.344 65.6252 747.476 152.756 748 260.398C748 457.607 389.001 652.904 389.001 652.904C389.001 652.904 30 454.736 30 260.398C30 152.539 117.436 65.1011 225.297 65.1011C291.321 64.5862 353.048 97.7947 389.001 153.175C425.2 98.0641 486.766 64.9417 552.703 65.1011Z" fill="#E5D9FF"/>
<g clip-path="url(#clip0)">
<path d="M388.518 576.942H333.61C323.247 576.942 318.463 564.057 326.315 557.297C340.53 545.059 358.658 538.326 377.415 538.326H388.518C394.147 538.326 398.713 542.891 398.713 548.521V566.751C398.713 572.377 394.147 576.942 388.518 576.942Z" fill="#D0F4EF"/>
<path d="M359.504 414.556C352.502 417.422 344.319 414.626 340.611 407.831C336.631 400.537 339.317 391.395 346.611 387.414L458.837 326.182C466.124 322.21 475.274 324.892 479.254 332.186C483.235 339.48 480.549 348.619 473.25 352.599L361.025 413.831C360.526 414.104 360.019 414.346 359.504 414.556Z" fill="#FF9921"/>
<path d="M194.596 526.837C190.971 530.361 183.162 528.903 174.795 525.067C166.327 521.184 157.283 514.876 151.388 508.81C139.669 496.736 144.854 490.233 152.156 483.141C159.458 476.042 166.113 471.048 177.832 483.122C178.674 483.991 179.524 484.923 180.362 485.905C191.224 498.63 201.372 520.252 194.596 526.837Z" fill="#E78E6F"/>
<path d="M194.597 526.837C190.971 530.361 183.162 528.903 174.795 525.067V517.348C174.795 506.611 176.698 495.944 180.367 485.909C191.224 498.63 201.372 520.252 194.597 526.837Z" fill="#C87C5B"/>
<path d="M328.44 404.249L263.625 432.042L240.448 441.979L235.142 444.256C218.479 451.398 205.162 463.804 196.784 479.051C190.452 490.556 186.951 503.671 186.951 517.348V550.151C186.951 564.946 198.947 576.942 213.743 576.942H255.949C263.598 576.942 269.801 570.739 269.801 563.09C269.801 561.464 269.505 559.909 268.99 558.462H328.44V404.249Z" fill="#FFF0CF"/>
<path d="M328.44 404.249V463.745L325.208 464.552C321.286 477.469 309.274 486.888 295.095 486.888C277.742 486.888 263.625 472.771 263.625 455.418V432.042L328.44 404.249Z" fill="#EAD1C1"/>
<path d="M253.356 466.471C253.356 482.86 240.066 496.151 223.68 496.151C211.777 496.151 201.52 489.153 196.787 479.048C205.161 463.804 218.479 451.391 235.142 444.252L240.452 441.976C248.249 447.324 253.356 456.299 253.356 466.471Z" fill="#E78E6F"/>
<path d="M312.83 576.942C304.214 576.942 297.228 569.956 297.228 561.336V496.151H328.436V561.336C328.436 569.956 321.45 576.942 312.83 576.942Z" fill="#FFF0CF"/>
<path d="M297.227 568.934C293.029 568.934 289.629 565.534 289.629 561.336V510.123C289.629 505.928 293.029 502.529 297.227 502.529C301.422 502.529 304.822 505.928 304.822 510.123V561.336C304.822 565.534 301.422 568.934 297.227 568.934Z" fill="#EAD1C1"/>
<path d="M269.801 570.685C265.602 570.685 262.202 567.285 262.202 563.086C262.202 559.64 259.395 556.833 255.945 556.833H230.339C222.475 556.833 216.078 550.435 216.078 542.572C216.078 535.8 220.943 529.913 227.645 528.572C236.986 526.704 243.766 518.42 243.766 508.872C243.766 504.677 247.165 501.277 251.36 501.277C255.559 501.277 258.959 504.677 258.959 508.872C258.959 523.457 249.937 536.365 236.783 541.64H255.945C267.773 541.64 277.395 551.262 277.395 563.09C277.395 567.285 273.996 570.685 269.801 570.685Z" fill="#EAD1C1"/>
<path d="M354.771 444.646L321.543 452.942C311.723 455.399 301.773 449.422 299.317 439.601L287.294 391.457L386.861 366.588L391.2 383.96C397.898 410.779 381.586 437.948 354.771 444.646Z" fill="#FFF0CF"/>
<path d="M397.652 359.332C397.652 366.564 391.793 372.424 384.565 372.424C377.337 372.424 371.473 366.564 371.473 359.332C371.473 352.104 377.337 346.245 384.565 346.245C391.793 346.245 397.652 352.104 397.652 359.332Z" fill="#4C78A0"/>
<path d="M284.284 378.358H305.91C310.608 378.358 314.413 382.163 314.413 386.861V455.418C314.413 466.085 305.766 474.736 295.095 474.736C284.428 474.736 275.781 466.085 275.781 455.418V386.861C275.781 382.163 279.586 378.358 284.284 378.358Z" fill="#E78E6F"/>
<path d="M336.81 405.102C333.368 405.102 330.221 402.767 329.391 399.281C328.412 395.204 330.884 391.114 334.966 390.139L335.056 390.116C339.138 389.133 343.235 391.66 344.21 395.738C345.188 399.82 342.67 403.917 338.588 404.892C337.995 405.036 337.399 405.102 336.81 405.102Z" fill="#4C78A0"/>
<path d="M185.454 472.132C183.446 472.132 181.438 471.34 179.945 469.769C172.382 461.804 161.926 464.171 161.481 464.276C157.427 465.321 153.314 462.865 152.269 458.798C151.224 454.736 153.704 450.588 157.77 449.543C158.553 449.34 177.154 444.771 190.963 459.301C193.852 462.346 193.727 467.153 190.686 470.042C189.216 471.442 187.333 472.132 185.454 472.132Z" fill="#D0F4EF"/>
<path d="M162.234 547.238C161.185 547.238 160.121 547.016 159.099 546.556C145.24 540.268 134.456 528.634 134.004 528.143C131.166 525.055 131.368 520.248 134.456 517.41C137.544 514.576 142.343 514.774 145.185 517.858C145.361 518.045 154.444 527.761 165.376 532.72C169.197 534.451 170.889 538.958 169.158 542.774C167.887 545.578 165.123 547.238 162.234 547.238Z" fill="#D0F4EF"/>
<path d="M523.383 453.617H442.202V331.902C442.202 309.481 460.373 291.309 482.79 291.309C505.207 291.309 523.383 309.481 523.383 331.902V453.617Z" fill="#FFBD47"/>
<path d="M523.379 331.898V453.617H507.083V331.898C507.083 320.693 502.533 310.545 495.192 303.2C489.679 297.691 482.58 293.75 474.638 292.12C477.27 291.594 479.999 291.309 482.794 291.309C494.007 291.309 504.143 295.859 511.488 303.2C518.841 310.545 523.379 320.693 523.379 331.898Z" fill="#FF9921"/>
<path d="M428.545 266.647C429.087 269.707 429.898 272.662 430.95 275.473C431.305 276.424 431.695 277.372 432.1 278.292C441.239 298.802 463.453 311.27 486.556 307.177C513.765 302.35 531.909 276.374 527.086 249.177C526.681 246.912 526.139 244.713 525.453 242.576C525.125 241.551 524.759 240.545 524.377 239.555C522.981 235.976 521.172 232.616 519.047 229.528C508.268 213.887 489.001 205.103 469.083 208.635C442.408 213.368 424.443 238.421 428.291 265.04C428.365 265.567 428.451 266.105 428.545 266.647Z" fill="#FECAA8"/>
<path d="M428.545 266.647C429.087 269.707 429.898 272.662 430.95 275.473C431.305 276.425 431.695 277.372 432.1 278.292C442.915 278.713 453.317 278.058 463.122 276.319C497.664 270.195 517.207 252.183 525.453 242.573C525.125 241.551 524.759 240.546 524.377 239.555C522.981 235.976 521.172 232.616 519.047 229.528C508.268 213.883 489.001 205.103 469.083 208.635C442.408 213.364 424.443 238.417 428.291 265.041C428.365 265.567 428.451 266.105 428.545 266.647Z" fill="#FFB38C"/>
<path d="M428.291 265.036C494.303 269.543 519.047 229.536 519.047 229.536C508.272 213.89 489.001 205.107 469.083 208.639C442.408 213.368 424.443 238.421 428.291 265.036Z" fill="#336686"/>
<path d="M523.188 236.776C516.318 245.567 490.654 272.974 438.377 272.974C435.664 272.974 432.876 272.904 430.022 272.74C426.385 272.561 422.615 272.237 418.74 271.758C414.576 271.255 411.605 267.465 412.112 263.302C412.619 259.138 416.408 256.171 420.572 256.678C423.032 256.982 425.434 257.216 427.773 257.388C483.32 261.551 507.507 232.542 511.944 226.464C512.693 225.431 513.656 224.639 514.728 224.113C516.287 225.816 517.726 227.618 519.043 229.532C520.615 231.801 522.002 234.222 523.188 236.776Z" fill="#336686"/>
<path d="M502.927 356.093L472.432 412.315C469.839 417.099 465.613 420.783 460.517 422.709L442.198 429.605V413.371L455.161 408.487C456.833 407.859 458.229 406.642 459.079 405.075L489.57 348.849C491.574 345.161 496.182 343.797 499.87 345.789C503.558 347.797 504.923 352.405 502.927 356.093Z" fill="#FF9921"/>
<path d="M476.471 341.75L448.658 393.032C447.788 394.642 446.369 395.878 444.658 396.525L442.198 397.457V373.087L463.122 334.506C465.118 330.81 469.726 329.442 473.414 331.45C477.11 333.446 478.478 338.062 476.471 341.75Z" fill="#FF9921"/>
<path d="M490.198 332.073C482.888 328.108 473.757 330.822 469.796 338.124L441.98 389.414L392.245 408.151C384.619 411.02 380.717 419.488 383.489 427.145C383.524 427.243 383.559 427.336 383.594 427.43C386.412 435.243 395.075 439.243 402.849 436.315L457.835 415.597C461.219 414.323 464.034 411.87 465.757 408.693L496.248 352.471C500.209 345.169 497.5 336.034 490.198 332.073Z" fill="#FFBD47"/>
<path d="M386.701 448.248L370.962 453.024C367.048 454.213 362.794 452.993 360.104 449.913L351.551 440.127C346.576 434.435 349.134 425.512 356.366 423.317L377.215 416.989C385.847 414.369 394.97 419.243 397.59 427.878C400.206 436.506 395.332 445.628 386.701 448.248Z" fill="#FECAA8"/>
<path d="M595.698 558.883C595.698 568.856 587.613 576.942 577.64 576.942H482.568C462.985 576.942 447.052 561.008 447.052 541.425V484.428C447.052 474.459 455.138 466.373 465.11 466.373C475.079 466.373 483.165 474.459 483.165 484.428V540.829H577.64C587.613 540.829 595.698 548.915 595.698 558.883Z" fill="#1E6BE7"/>
<path d="M441.27 438.868V446.373H389.898C370.315 446.373 354.381 462.303 354.381 481.886V534.809C354.381 544.782 362.467 552.864 372.44 552.864C382.409 552.864 390.494 544.782 390.494 534.809V482.482L507.562 482.47C516.786 482.47 524.26 474.993 524.26 465.773V438.868H441.27Z" fill="#2081F6"/>
<path d="M591.998 520.283L637.936 550.357C646.606 556.034 643.55 569.433 633.277 570.79C614.681 573.242 595.827 568.942 580.135 558.669L570.845 552.587C566.135 549.503 564.817 543.184 567.901 538.474L577.885 523.227C580.969 518.517 587.289 517.195 591.998 520.283Z" fill="#ABE0DA"/>
<path d="M299.411 348.292C297.769 348.292 296.128 347.761 294.76 346.701L288.467 341.828C285.149 339.262 284.545 334.49 287.114 331.173C289.68 327.851 294.455 327.247 297.769 329.816L299.446 331.114L301.547 329.512C304.884 326.966 309.648 327.609 312.194 330.947C314.74 334.28 314.097 339.048 310.76 341.594L304.019 346.736C302.654 347.773 301.032 348.292 299.411 348.292Z" fill="#F72B2B"/>
<path d="M336.596 294.841C334.958 294.841 333.317 294.311 331.949 293.251L325.656 288.377C322.338 285.808 321.73 281.036 324.299 277.723C326.869 274.401 331.641 273.793 334.958 276.366L336.635 277.66L338.736 276.058C342.069 273.516 346.837 274.159 349.383 277.493C351.925 280.83 351.286 285.598 347.948 288.14L341.204 293.282C339.843 294.323 338.221 294.841 336.596 294.841Z" fill="#F72B2B"/>
<path d="M270.557 330.521C268.92 330.521 267.278 329.991 265.91 328.931L259.618 324.058C256.3 321.488 255.692 316.716 258.261 313.403C260.83 310.085 265.602 309.477 268.92 312.046L270.592 313.34L272.694 311.742C276.031 309.196 280.799 309.835 283.341 313.173C285.887 316.51 285.243 321.274 281.91 323.82L275.165 328.962C273.805 330.003 272.183 330.521 270.557 330.521Z" fill="#F72B2B"/>
</g>
<path d="M180.45 158.4C180.45 159.833 180.517 161.233 180.65 162.6C180.817 163.933 181.067 165.817 181.4 168.25C182.033 172.35 182.35 175.617 182.35 178.05C182.35 178.55 182.25 178.85 182.05 178.95C181.85 179.05 181.617 179.1 181.35 179.1C181.083 179.1 180.9 179.1 180.8 179.1C180.333 179.1 179.967 179.05 179.7 178.95C179.433 178.817 179.217 178.517 179.05 178.05L178 164.45C177.9 163.083 177.767 160.333 177.6 156.2C176.167 157.867 174.75 159.133 173.35 160C171.95 160.833 170.517 161.25 169.05 161.25C166.95 161.25 164.85 159.767 162.75 156.8C162.85 157.3 162.9 157.967 162.9 158.8C162.9 159.633 162.9 160.117 162.9 160.25L162.85 176.6C162.85 176.933 162.667 177.2 162.3 177.4C161.967 177.567 161.617 177.65 161.25 177.65C160.783 177.65 160.45 177.483 160.25 177.15C160.083 176.783 159.95 176.3 159.85 175.7V168.7C159.85 167.633 159.883 166.433 159.95 165.1C160.017 163.767 160.067 162.833 160.1 162.3C160.267 159.967 160.35 157.85 160.35 155.95C160.35 155.383 160.25 154.85 160.05 154.35C159.85 153.817 159.55 153.233 159.15 152.6C158.75 151.967 158.45 151.417 158.25 150.95C158.083 150.483 158 149.983 158 149.45C158 148.817 158.317 148.5 158.95 148.5C159.95 148.5 160.767 148.867 161.4 149.6C162.033 150.3 162.717 151.367 163.45 152.8C164.083 153.967 164.633 154.883 165.1 155.55C165.567 156.217 166.167 156.8 166.9 157.3C167.633 157.767 168.517 158 169.55 158C171.05 158.067 172.283 157.783 173.25 157.15C174.217 156.483 174.95 155.683 175.45 154.75C175.95 153.817 176.433 152.683 176.9 151.35C177.3 150.25 177.65 149.483 177.95 149.05C178.25 148.583 178.617 148.4 179.05 148.5C180.05 148.433 180.55 149.35 180.55 151.25C180.55 152.85 180.533 154.033 180.5 154.8L180.45 158.4ZM199.971 179C196.504 179 193.488 178.4 190.921 177.2C188.388 175.967 187.121 173.817 187.121 170.75C187.121 169.65 187.454 168.583 188.121 167.55C188.788 166.517 189.771 165.683 191.071 165.05C192.371 164.383 193.954 164.05 195.821 164.05C197.254 164.05 198.471 164.117 199.471 164.25C200.471 164.383 201.621 164.75 202.921 165.35C204.221 165.95 205.571 166.9 206.971 168.2C206.438 165.9 205.638 163.883 204.571 162.15C203.504 160.417 202.304 159.083 200.971 158.15C199.671 157.183 198.388 156.7 197.121 156.7C196.521 156.7 195.954 156.817 195.421 157.05C194.921 157.25 194.304 157.55 193.571 157.95C192.738 158.483 192.121 158.75 191.721 158.75C191.554 158.75 191.404 158.7 191.271 158.6C191.171 158.467 191.121 158.317 191.121 158.15C191.121 156.817 191.704 155.783 192.871 155.05C194.071 154.317 195.521 153.983 197.221 154.05C199.554 154.183 201.688 155.183 203.621 157.05C205.554 158.883 207.071 161.167 208.171 163.9C209.304 166.633 209.871 169.317 209.871 171.95C209.871 172.383 209.838 173 209.771 173.8L208.171 173.7C206.904 171.133 205.271 169.317 203.271 168.25C201.304 167.15 199.321 166.6 197.321 166.6C194.754 166.6 192.921 166.983 191.821 167.75C190.721 168.517 190.171 169.633 190.171 171.1C190.171 172.633 190.938 173.867 192.471 174.8C194.004 175.733 195.971 176.2 198.371 176.2C199.704 176.2 200.771 176.133 201.571 176C202.371 175.833 203.204 175.617 204.071 175.35C204.771 175.117 205.388 174.95 205.921 174.85C206.454 174.75 207.138 174.7 207.971 174.7C208.904 174.7 209.488 174.767 209.721 174.9C209.988 175.033 210.121 175.333 210.121 175.8C210.121 176.133 209.438 176.55 208.071 177.05C206.704 177.55 205.171 178 203.471 178.4C201.771 178.8 200.604 179 199.971 179ZM214.123 173.1C214.59 172.733 215.04 172.55 215.473 172.55C215.873 172.55 216.256 172.667 216.623 172.9C217.023 173.133 217.423 173.433 217.823 173.8C218.223 174.133 218.54 174.383 218.773 174.55C219.54 175.15 220.59 175.617 221.923 175.95C223.256 176.283 224.673 176.45 226.173 176.45C227.873 176.45 229.39 176.133 230.723 175.5C232.09 174.833 232.773 173.95 232.773 172.85C232.773 171.85 232.406 171.067 231.673 170.5C230.94 169.9 230.056 169.467 229.023 169.2C227.99 168.933 226.623 168.683 224.923 168.45C222.623 168.183 220.79 167.85 219.423 167.45C218.09 167.05 217.023 166.4 216.223 165.5C215.423 164.567 215.023 163.267 215.023 161.6C215.023 159.8 215.873 158.467 217.573 157.6C219.273 156.7 221.223 156.25 223.423 156.25C225.423 156.25 227.123 156.683 228.523 157.55C229.956 158.383 230.69 159.583 230.723 161.15C230.79 162.05 230.656 162.767 230.323 163.3C229.99 163.8 229.59 164.05 229.123 164.05C228.856 164.05 228.623 163.95 228.423 163.75C228.256 163.55 228.173 163.283 228.173 162.95C228.173 162.417 228.356 161.833 228.723 161.2C228.556 160.4 228.006 159.8 227.073 159.4C226.173 159 225.09 158.8 223.823 158.8C221.956 158.8 220.473 159.15 219.373 159.85C218.273 160.517 217.723 161.317 217.723 162.25C217.723 163.25 218.123 164.017 218.923 164.55C219.723 165.083 220.69 165.467 221.823 165.7C222.99 165.9 224.64 166.1 226.773 166.3C228.54 166.533 229.973 166.817 231.073 167.15C232.206 167.483 233.156 168.133 233.923 169.1C234.69 170.033 235.073 171.383 235.073 173.15C235.073 174.983 234.223 176.433 232.523 177.5C230.823 178.533 228.79 179.05 226.423 179.05C223.39 179.05 220.673 178.533 218.273 177.5C215.906 176.467 214.523 175 214.123 173.1ZM251.363 179.05C247.463 179.05 244.429 178.167 242.263 176.4C240.129 174.6 239.063 171.833 239.063 168.1C239.063 166.2 239.529 164.4 240.463 162.7C241.429 160.967 242.713 159.583 244.313 158.55C245.946 157.483 247.696 156.95 249.562 156.95C251.463 156.95 253.079 157.367 254.413 158.2C255.746 159 256.413 160.167 256.413 161.7C256.413 162.767 256.213 163.533 255.813 164C255.446 164.433 255.029 164.65 254.563 164.65C254.563 163.05 254.129 161.75 253.263 160.75C252.396 159.75 251.163 159.25 249.562 159.25C247.963 159.25 246.579 159.683 245.413 160.55C244.246 161.383 243.346 162.5 242.713 163.9C242.113 165.267 241.813 166.7 241.813 168.2C241.813 171.367 242.879 173.517 245.013 174.65C247.179 175.783 250.029 176.35 253.563 176.35C254.763 176.35 256.329 176.283 258.263 176.15C258.329 176.15 258.479 176.217 258.713 176.35C258.946 176.483 259.129 176.567 259.263 176.6V176.9C259.263 177.867 258.413 178.467 256.713 178.7C255.013 178.933 253.229 179.05 251.363 179.05ZM271.379 179.05C269.413 179.05 267.629 178.617 266.029 177.75C264.463 176.85 263.229 175.617 262.329 174.05C261.463 172.45 261.029 170.633 261.029 168.6C261.029 165.267 262.246 162.783 264.679 161.15C267.146 159.517 270.163 158.7 273.729 158.7C275.363 158.7 276.879 159.1 278.279 159.9C279.713 160.7 280.863 161.85 281.729 163.35C282.596 164.85 283.029 166.583 283.029 168.55C283.029 170.683 282.479 172.55 281.379 174.15C280.279 175.717 278.829 176.933 277.029 177.8C275.263 178.633 273.379 179.05 271.379 179.05ZM270.829 176.2C273.929 176.2 276.279 175.5 277.879 174.1C279.479 172.7 280.279 170.65 280.279 167.95C280.279 166.117 279.646 164.533 278.379 163.2C277.146 161.867 275.413 161.2 273.179 161.2C271.679 161.2 270.163 161.483 268.629 162.05C267.096 162.617 265.829 163.467 264.829 164.6C263.829 165.733 263.329 167.1 263.329 168.7C263.329 170.033 263.663 171.283 264.329 172.45C264.996 173.583 265.896 174.5 267.029 175.2C268.196 175.867 269.463 176.2 270.829 176.2ZM294.806 179C294.473 179.067 294.256 179.1 294.156 179.1C293.123 179.1 292.406 178.333 292.006 176.8C291.639 175.267 291.456 173.117 291.456 170.35C291.456 169.217 291.489 167.45 291.556 165.05C291.623 163.583 291.656 162.483 291.656 161.75C287.556 161.75 285.506 161.283 285.506 160.35C285.506 160.05 285.539 159.817 285.606 159.65C285.706 159.483 285.906 159.4 286.206 159.4L291.656 159.05C291.623 157.417 291.539 155.633 291.406 153.7C291.273 151.967 291.189 150.367 291.156 148.9C291.156 148.533 291.306 148.283 291.606 148.15C291.906 147.983 292.223 147.9 292.556 147.9C292.956 147.9 293.289 148.117 293.556 148.55C293.823 148.95 293.956 149.367 293.956 149.8L294.306 158.95L298.456 159.15C299.089 159.083 299.623 159.2 300.056 159.5C300.523 159.8 300.773 160.3 300.806 161C300.106 161.3 299.339 161.483 298.506 161.55C297.673 161.617 296.273 161.65 294.306 161.65C294.306 164.75 294.456 169.85 294.756 176.95C294.756 177.683 294.756 178.2 294.756 178.5C294.789 178.767 294.806 178.933 294.806 179ZM316.153 179C312.686 179 309.669 178.4 307.103 177.2C304.569 175.967 303.303 173.817 303.303 170.75C303.303 169.65 303.636 168.583 304.303 167.55C304.969 166.517 305.953 165.683 307.253 165.05C308.553 164.383 310.136 164.05 312.003 164.05C313.436 164.05 314.653 164.117 315.653 164.25C316.653 164.383 317.803 164.75 319.103 165.35C320.403 165.95 321.753 166.9 323.153 168.2C322.619 165.9 321.819 163.883 320.753 162.15C319.686 160.417 318.486 159.083 317.153 158.15C315.853 157.183 314.569 156.7 313.303 156.7C312.703 156.7 312.136 156.817 311.603 157.05C311.103 157.25 310.486 157.55 309.753 157.95C308.919 158.483 308.303 158.75 307.903 158.75C307.736 158.75 307.586 158.7 307.453 158.6C307.353 158.467 307.303 158.317 307.303 158.15C307.303 156.817 307.886 155.783 309.053 155.05C310.253 154.317 311.703 153.983 313.403 154.05C315.736 154.183 317.869 155.183 319.803 157.05C321.736 158.883 323.253 161.167 324.353 163.9C325.486 166.633 326.053 169.317 326.053 171.95C326.053 172.383 326.019 173 325.953 173.8L324.353 173.7C323.086 171.133 321.453 169.317 319.453 168.25C317.486 167.15 315.503 166.6 313.503 166.6C310.936 166.6 309.103 166.983 308.003 167.75C306.903 168.517 306.353 169.633 306.353 171.1C306.353 172.633 307.119 173.867 308.653 174.8C310.186 175.733 312.153 176.2 314.553 176.2C315.886 176.2 316.953 176.133 317.753 176C318.553 175.833 319.386 175.617 320.253 175.35C320.953 175.117 321.569 174.95 322.103 174.85C322.636 174.75 323.319 174.7 324.153 174.7C325.086 174.7 325.669 174.767 325.903 174.9C326.169 175.033 326.303 175.333 326.303 175.8C326.303 176.133 325.619 176.55 324.253 177.05C322.886 177.55 321.353 178 319.653 178.4C317.953 178.8 316.786 179 316.153 179ZM353.205 179.05C350.438 179.05 348.421 178.533 347.155 177.5C345.921 176.467 345.305 174.6 345.305 171.9L346.005 160.7V149.95C346.005 149.117 346.171 148.583 346.505 148.35C346.838 148.083 347.571 147.95 348.705 147.95L352.105 148.05C356.371 148.283 360.538 148.4 364.605 148.4C365.471 148.4 366.155 148.65 366.655 149.15C367.188 149.65 367.455 150.333 367.455 151.2C367.455 151.367 367.405 151.5 367.305 151.6C367.205 151.7 367.088 151.733 366.955 151.7L364.605 150.8L348.955 151.2C348.755 151.2 348.638 151.183 348.605 151.15C348.738 151.417 348.805 151.65 348.805 151.85V160.7C350.338 160.8 351.821 160.85 353.255 160.85C355.721 160.85 358.438 160.733 361.405 160.5C361.705 160.467 362.155 160.433 362.755 160.4C363.388 160.333 363.738 160.333 363.805 160.4C364.005 160.6 364.155 160.783 364.255 160.95C364.355 161.117 364.421 161.35 364.455 161.65C364.555 162.383 363.438 162.867 361.105 163.1C358.805 163.333 355.721 163.517 351.855 163.65C350.555 163.65 349.471 163.683 348.605 163.75C348.205 164.75 348.005 166.35 348.005 168.55L348.055 171.5V174.75C348.588 175.183 349.171 175.467 349.805 175.6C350.438 175.733 351.471 175.8 352.905 175.8C354.405 175.8 355.871 175.717 357.305 175.55C358.771 175.383 359.638 175.283 359.905 175.25C362.705 174.917 364.788 174.75 366.155 174.75C366.955 174.75 367.505 174.833 367.805 175C368.138 175.133 368.305 175.383 368.305 175.75C368.305 177.95 363.838 179.05 354.905 179.05H353.205ZM377.127 179.2C376.66 179.333 376.394 179.4 376.327 179.4C376.06 179.4 375.777 179.267 375.477 179C374.377 177.367 373.577 174.517 373.077 170.45C372.61 166.383 372.377 162.883 372.377 159.95C372.377 159.483 372.71 159.25 373.377 159.25C374.377 159.25 374.877 159.8 374.877 160.9C374.877 161.2 374.86 161.45 374.827 161.65C375.127 160.95 375.694 160.233 376.527 159.5C377.36 158.767 378.327 158.15 379.427 157.65C380.527 157.15 381.644 156.9 382.777 156.9C386.344 156.9 388.944 158.483 390.577 161.65C392.21 164.783 393.027 168.683 393.027 173.35C393.027 174.95 392.86 176.233 392.527 177.2C392.194 178.133 391.744 178.6 391.177 178.6C390.577 178.6 390.277 178.417 390.277 178.05C390.51 176.283 390.627 174.55 390.627 172.85C390.627 168.55 389.877 165.3 388.377 163.1C386.877 160.867 384.894 159.75 382.427 159.75C381.227 159.75 380.06 160.05 378.927 160.65C377.827 161.25 376.927 162.083 376.227 163.15C375.56 164.217 375.227 165.433 375.227 166.8C375.227 168.333 375.31 169.667 375.477 170.8C375.644 171.933 375.91 173.3 376.277 174.9C376.677 176.467 376.96 177.9 377.127 179.2ZM409.085 179.05C405.185 179.05 402.152 178.167 399.985 176.4C397.852 174.6 396.785 171.833 396.785 168.1C396.785 166.2 397.252 164.4 398.185 162.7C399.152 160.967 400.435 159.583 402.035 158.55C403.668 157.483 405.418 156.95 407.285 156.95C409.185 156.95 410.802 157.367 412.135 158.2C413.468 159 414.135 160.167 414.135 161.7C414.135 162.767 413.935 163.533 413.535 164C413.168 164.433 412.752 164.65 412.285 164.65C412.285 163.05 411.852 161.75 410.985 160.75C410.118 159.75 408.885 159.25 407.285 159.25C405.685 159.25 404.302 159.683 403.135 160.55C401.968 161.383 401.068 162.5 400.435 163.9C399.835 165.267 399.535 166.7 399.535 168.2C399.535 171.367 400.602 173.517 402.735 174.65C404.902 175.783 407.752 176.35 411.285 176.35C412.485 176.35 414.052 176.283 415.985 176.15C416.052 176.15 416.202 176.217 416.435 176.35C416.668 176.483 416.852 176.567 416.985 176.6V176.9C416.985 177.867 416.135 178.467 414.435 178.7C412.735 178.933 410.952 179.05 409.085 179.05ZM429.102 179.05C427.135 179.05 425.352 178.617 423.752 177.75C422.185 176.85 420.952 175.617 420.052 174.05C419.185 172.45 418.752 170.633 418.752 168.6C418.752 165.267 419.969 162.783 422.402 161.15C424.869 159.517 427.885 158.7 431.452 158.7C433.085 158.7 434.602 159.1 436.002 159.9C437.435 160.7 438.585 161.85 439.452 163.35C440.319 164.85 440.752 166.583 440.752 168.55C440.752 170.683 440.202 172.55 439.102 174.15C438.002 175.717 436.552 176.933 434.752 177.8C432.985 178.633 431.102 179.05 429.102 179.05ZM428.552 176.2C431.652 176.2 434.002 175.5 435.602 174.1C437.202 172.7 438.002 170.65 438.002 167.95C438.002 166.117 437.369 164.533 436.102 163.2C434.869 161.867 433.135 161.2 430.902 161.2C429.402 161.2 427.885 161.483 426.352 162.05C424.819 162.617 423.552 163.467 422.552 164.6C421.552 165.733 421.052 167.1 421.052 168.7C421.052 170.033 421.385 171.283 422.052 172.45C422.719 173.583 423.619 174.5 424.752 175.2C425.919 175.867 427.185 176.2 428.552 176.2ZM449.229 179.2C448.762 179.333 448.495 179.4 448.429 179.4C448.162 179.4 447.879 179.267 447.579 179C446.479 177.367 445.679 174.517 445.179 170.45C444.712 166.383 444.479 162.883 444.479 159.95C444.479 159.483 444.812 159.25 445.479 159.25C446.479 159.25 446.979 159.8 446.979 160.9C446.979 161.2 446.962 161.45 446.929 161.65C447.229 160.95 447.795 160.233 448.629 159.5C449.462 158.767 450.429 158.15 451.529 157.65C452.629 157.15 453.745 156.9 454.879 156.9C458.445 156.9 461.045 158.483 462.679 161.65C464.312 164.783 465.129 168.683 465.129 173.35C465.129 174.95 464.962 176.233 464.629 177.2C464.295 178.133 463.845 178.6 463.279 178.6C462.679 178.6 462.379 178.417 462.379 178.05C462.612 176.283 462.729 174.55 462.729 172.85C462.729 168.55 461.979 165.3 460.479 163.1C458.979 160.867 456.995 159.75 454.529 159.75C453.329 159.75 452.162 160.05 451.029 160.65C449.929 161.25 449.029 162.083 448.329 163.15C447.662 164.217 447.329 165.433 447.329 166.8C447.329 168.333 447.412 169.667 447.579 170.8C447.745 171.933 448.012 173.3 448.379 174.9C448.779 176.467 449.062 177.9 449.229 179.2ZM476.937 179C476.603 179.067 476.387 179.1 476.287 179.1C475.253 179.1 474.537 178.333 474.137 176.8C473.77 175.267 473.587 173.117 473.587 170.35C473.587 169.217 473.62 167.45 473.687 165.05C473.753 163.583 473.787 162.483 473.787 161.75C469.687 161.75 467.637 161.283 467.637 160.35C467.637 160.05 467.67 159.817 467.737 159.65C467.837 159.483 468.037 159.4 468.337 159.4L473.787 159.05C473.753 157.417 473.67 155.633 473.537 153.7C473.403 151.967 473.32 150.367 473.287 148.9C473.287 148.533 473.437 148.283 473.737 148.15C474.037 147.983 474.353 147.9 474.687 147.9C475.087 147.9 475.42 148.117 475.687 148.55C475.953 148.95 476.087 149.367 476.087 149.8L476.437 158.95L480.587 159.15C481.22 159.083 481.753 159.2 482.187 159.5C482.653 159.8 482.903 160.3 482.937 161C482.237 161.3 481.47 161.483 480.637 161.55C479.803 161.617 478.403 161.65 476.437 161.65C476.437 164.75 476.587 169.85 476.887 176.95C476.887 177.683 476.887 178.2 476.887 178.5C476.92 178.767 476.937 178.933 476.937 179ZM489.834 179C488.467 176.333 487.384 173.2 486.584 169.6C485.817 166 485.434 162.883 485.434 160.25C485.434 159.217 485.667 158.55 486.134 158.25C486.4 158.083 486.6 158 486.734 158C486.967 158 487.134 158.183 487.234 158.55C487.367 158.917 487.5 159.583 487.634 160.55L487.884 162.35C488.25 160.55 488.95 159.133 489.984 158.1C491.05 157.033 492.35 156.5 493.884 156.5C495.584 156.5 496.85 156.833 497.684 157.5C498.517 158.133 498.934 159.2 498.934 160.7C497.267 159.9 495.75 159.5 494.384 159.5C493.084 159.5 491.967 159.85 491.034 160.55C490.1 161.25 489.45 162.283 489.084 163.65C488.784 164.583 488.634 165.467 488.634 166.3C488.634 167.2 488.75 168.05 488.984 168.85C489.25 169.617 489.65 170.567 490.184 171.7C490.684 172.867 491.067 173.867 491.334 174.7C491.634 175.533 491.8 176.433 491.834 177.4C491.834 177.967 491.634 178.383 491.234 178.65C490.834 178.883 490.367 179 489.834 179ZM513.512 179C510.045 179 507.029 178.4 504.462 177.2C501.929 175.967 500.662 173.817 500.662 170.75C500.662 169.65 500.995 168.583 501.662 167.55C502.329 166.517 503.312 165.683 504.612 165.05C505.912 164.383 507.495 164.05 509.362 164.05C510.795 164.05 512.012 164.117 513.012 164.25C514.012 164.383 515.162 164.75 516.462 165.35C517.762 165.95 519.112 166.9 520.512 168.2C519.979 165.9 519.179 163.883 518.112 162.15C517.045 160.417 515.845 159.083 514.512 158.15C513.212 157.183 511.929 156.7 510.662 156.7C510.062 156.7 509.495 156.817 508.962 157.05C508.462 157.25 507.845 157.55 507.112 157.95C506.279 158.483 505.662 158.75 505.262 158.75C505.095 158.75 504.945 158.7 504.812 158.6C504.712 158.467 504.662 158.317 504.662 158.15C504.662 156.817 505.245 155.783 506.412 155.05C507.612 154.317 509.062 153.983 510.762 154.05C513.095 154.183 515.229 155.183 517.162 157.05C519.095 158.883 520.612 161.167 521.712 163.9C522.845 166.633 523.412 169.317 523.412 171.95C523.412 172.383 523.379 173 523.312 173.8L521.712 173.7C520.445 171.133 518.812 169.317 516.812 168.25C514.845 167.15 512.862 166.6 510.862 166.6C508.295 166.6 506.462 166.983 505.362 167.75C504.262 168.517 503.712 169.633 503.712 171.1C503.712 172.633 504.479 173.867 506.012 174.8C507.545 175.733 509.512 176.2 511.912 176.2C513.245 176.2 514.312 176.133 515.112 176C515.912 175.833 516.745 175.617 517.612 175.35C518.312 175.117 518.929 174.95 519.462 174.85C519.995 174.75 520.679 174.7 521.512 174.7C522.445 174.7 523.029 174.767 523.262 174.9C523.529 175.033 523.662 175.333 523.662 175.8C523.662 176.133 522.979 176.55 521.612 177.05C520.245 177.55 518.712 178 517.012 178.4C515.312 178.8 514.145 179 513.512 179ZM535.964 178.95C534.397 178.95 533.031 178.417 531.864 177.35C530.731 176.283 529.864 174.9 529.264 173.2C528.697 171.5 528.414 169.733 528.414 167.9C528.414 164.7 529.081 162 530.414 159.8C531.781 157.6 533.847 156.5 536.614 156.5C538.281 156.5 539.731 156.8 540.964 157.4C542.231 157.967 543.881 158.933 545.914 160.3L547.214 161.2C547.047 160.1 546.797 158.833 546.464 157.4C546.131 155.967 545.914 154.983 545.814 154.45C545.247 151.85 544.831 149.917 544.564 148.65C544.331 147.35 544.214 146.2 544.214 145.2C544.214 143.433 544.714 142.55 545.714 142.55C546.081 143.35 546.514 145.067 547.014 147.7C547.514 150.3 548.147 153.867 548.914 158.4C549.714 163.2 550.414 167.117 551.014 170.15C551.614 173.183 552.114 175.083 552.514 175.85C552.514 176.617 551.947 177 550.814 177C549.947 177 549.347 176.5 549.014 175.5C548.714 174.5 548.531 172.75 548.464 170.25H548.064C546.664 172.783 544.847 174.867 542.614 176.5C540.381 178.133 538.164 178.95 535.964 178.95ZM536.614 176.5C537.981 176.5 539.447 175.933 541.014 174.8C542.614 173.633 543.964 172.233 545.064 170.6C546.164 168.933 546.714 167.433 546.714 166.1V164.6C543.281 161 540.114 159.2 537.214 159.2C535.181 159.2 533.614 159.95 532.514 161.45C531.414 162.917 530.864 164.85 530.864 167.25L530.914 168.3C531.114 170.833 531.681 172.833 532.614 174.3C533.547 175.767 534.881 176.5 536.614 176.5ZM568.09 179C564.624 179 561.607 178.4 559.04 177.2C556.507 175.967 555.24 173.817 555.24 170.75C555.24 169.65 555.574 168.583 556.24 167.55C556.907 166.517 557.89 165.683 559.19 165.05C560.49 164.383 562.074 164.05 563.94 164.05C565.374 164.05 566.59 164.117 567.59 164.25C568.59 164.383 569.74 164.75 571.04 165.35C572.34 165.95 573.69 166.9 575.09 168.2C574.557 165.9 573.757 163.883 572.69 162.15C571.624 160.417 570.424 159.083 569.09 158.15C567.79 157.183 566.507 156.7 565.24 156.7C564.64 156.7 564.074 156.817 563.54 157.05C563.04 157.25 562.424 157.55 561.69 157.95C560.857 158.483 560.24 158.75 559.84 158.75C559.674 158.75 559.524 158.7 559.39 158.6C559.29 158.467 559.24 158.317 559.24 158.15C559.24 156.817 559.824 155.783 560.99 155.05C562.19 154.317 563.64 153.983 565.34 154.05C567.674 154.183 569.807 155.183 571.74 157.05C573.674 158.883 575.19 161.167 576.29 163.9C577.424 166.633 577.99 169.317 577.99 171.95C577.99 172.383 577.957 173 577.89 173.8L576.29 173.7C575.024 171.133 573.39 169.317 571.39 168.25C569.424 167.15 567.44 166.6 565.44 166.6C562.874 166.6 561.04 166.983 559.94 167.75C558.84 168.517 558.29 169.633 558.29 171.1C558.29 172.633 559.057 173.867 560.59 174.8C562.124 175.733 564.09 176.2 566.49 176.2C567.824 176.2 568.89 176.133 569.69 176C570.49 175.833 571.324 175.617 572.19 175.35C572.89 175.117 573.507 174.95 574.04 174.85C574.574 174.75 575.257 174.7 576.09 174.7C577.024 174.7 577.607 174.767 577.84 174.9C578.107 175.033 578.24 175.333 578.24 175.8C578.24 176.133 577.557 176.55 576.19 177.05C574.824 177.55 573.29 178 571.59 178.4C569.89 178.8 568.724 179 568.09 179ZM583.142 168.2C582.676 168.2 582.392 168 582.292 167.6C582.026 165.833 581.892 162.9 581.892 158.8L581.942 153.5C581.976 152.367 581.992 150.75 581.992 148.65C581.992 146.617 581.942 144.983 581.842 143.75C581.876 143.583 582.026 143.45 582.292 143.35C582.592 143.217 582.942 143.15 583.342 143.15C583.709 143.15 584.009 143.2 584.242 143.3C584.276 145.5 584.342 149.083 584.442 154.05C584.576 158.983 584.676 162.7 584.742 165.2L584.792 166.35C584.792 167.583 584.376 168.2 583.542 168.2H583.142ZM583.042 179.05C582.242 179.05 581.659 178.85 581.292 178.45C580.959 178.017 580.792 177.4 580.792 176.6C580.792 175.667 581.126 174.967 581.792 174.5C582.492 174.033 583.376 173.8 584.442 173.8C585.076 173.8 585.592 174.117 585.992 174.75C586.392 175.35 586.592 175.967 586.592 176.6C586.592 177.267 586.176 177.85 585.342 178.35C584.542 178.817 583.776 179.05 583.042 179.05ZM590.412 168.2C589.945 168.2 589.662 168 589.562 167.6C589.295 165.833 589.162 162.9 589.162 158.8L589.212 153.5C589.245 152.367 589.262 150.75 589.262 148.65C589.262 146.617 589.212 144.983 589.112 143.75C589.145 143.583 589.295 143.45 589.562 143.35C589.862 143.217 590.212 143.15 590.612 143.15C590.978 143.15 591.278 143.2 591.512 143.3C591.545 145.5 591.612 149.083 591.712 154.05C591.845 158.983 591.945 162.7 592.012 165.2L592.062 166.35C592.062 167.583 591.645 168.2 590.812 168.2H590.412ZM590.312 179.05C589.512 179.05 588.928 178.85 588.562 178.45C588.228 178.017 588.062 177.4 588.062 176.6C588.062 175.667 588.395 174.967 589.062 174.5C589.762 174.033 590.645 173.8 591.712 173.8C592.345 173.8 592.862 174.117 593.262 174.75C593.662 175.35 593.862 175.967 593.862 176.6C593.862 177.267 593.445 177.85 592.612 178.35C591.812 178.817 591.045 179.05 590.312 179.05ZM597.681 168.2C597.215 168.2 596.931 168 596.831 167.6C596.565 165.833 596.431 162.9 596.431 158.8L596.481 153.5C596.515 152.367 596.531 150.75 596.531 148.65C596.531 146.617 596.481 144.983 596.381 143.75C596.415 143.583 596.565 143.45 596.831 143.35C597.131 143.217 597.481 143.15 597.881 143.15C598.248 143.15 598.548 143.2 598.781 143.3C598.815 145.5 598.881 149.083 598.981 154.05C599.115 158.983 599.215 162.7 599.281 165.2L599.331 166.35C599.331 167.583 598.915 168.2 598.081 168.2H597.681ZM597.581 179.05C596.781 179.05 596.198 178.85 595.831 178.45C595.498 178.017 595.331 177.4 595.331 176.6C595.331 175.667 595.665 174.967 596.331 174.5C597.031 174.033 597.915 173.8 598.981 173.8C599.615 173.8 600.131 174.117 600.531 174.75C600.931 175.35 601.131 175.967 601.131 176.6C601.131 177.267 600.715 177.85 599.881 178.35C599.081 178.817 598.315 179.05 597.581 179.05Z" fill="black"/>
<path d="M754.297 142.774C739.447 127.925 723.163 120.133 717.925 125.369C717.351 125.971 716.928 126.702 716.691 127.5L716.607 127.416L711.605 147.916L706.623 168.355L700.718 192.557L696.98 207.884L719.111 199.51L747.26 188.859L769.716 180.362L769.69 180.335C770.441 180.095 771.129 179.689 771.701 179.145C776.939 173.907 769.147 157.624 754.297 142.774Z" fill="#DD1C4B"/>
<path d="M754.297 142.768C739.447 127.918 723.163 120.126 717.926 125.363C712.688 130.601 720.481 146.884 735.33 161.734C750.18 176.584 766.464 184.376 771.701 179.139C776.939 173.901 769.147 157.618 754.297 142.768Z" fill="#D1E3EE"/>
<path d="M767.678 181.025C764.997 181.072 762.336 180.544 759.876 179.477L741.522 186.422L713.364 197.063L698.264 202.776L696.98 208.039L719.111 199.665L747.26 189.014L767.87 181.216L767.678 181.025Z" fill="#B21D48"/>
<path d="M790.86 165.889C790.631 165.889 790.403 165.848 790.187 165.769C780.461 162.125 769.947 161.103 759.701 162.807L752.858 163.947C751.81 164.096 750.84 163.368 750.69 162.32C750.546 161.308 751.222 160.361 752.225 160.168L759.071 159.019C769.981 157.206 781.175 158.293 791.532 162.17C792.528 162.528 793.045 163.626 792.688 164.621C792.411 165.391 791.677 165.9 790.86 165.889Z" fill="#FFBF41"/>
<path d="M756.373 154.394C755.315 154.388 754.463 153.525 754.469 152.467C754.473 151.736 754.892 151.072 755.55 150.754L795.784 131.594C796.74 131.139 797.883 131.545 798.338 132.501C798.793 133.456 798.387 134.599 797.432 135.054L757.197 154.214C756.94 154.334 756.658 154.396 756.373 154.394Z" fill="#FFBF41"/>
<path d="M733.969 150.562C733.716 150.562 733.466 150.512 733.233 150.414C732.256 150.007 731.795 148.885 732.202 147.908V147.908L734.988 141.224C739.274 130.982 740.274 119.662 737.849 108.827C737.6 107.799 738.232 106.764 739.261 106.515C740.289 106.266 741.325 106.899 741.573 107.927C741.579 107.95 741.584 107.973 741.588 107.996C744.186 119.602 743.115 131.728 738.523 142.699L735.735 149.383C735.438 150.096 734.741 150.561 733.969 150.562Z" fill="#FFBF41"/>
<path d="M800.44 173.553C802.557 173.553 804.272 171.837 804.272 169.721C804.272 167.605 802.557 165.889 800.44 165.889C798.324 165.889 796.608 167.605 796.608 169.721C796.608 171.837 798.324 173.553 800.44 173.553Z" fill="#D5557E"/>
<path d="M754.458 119.907C756.574 119.907 758.29 118.191 758.29 116.075C758.29 113.959 756.574 112.243 754.458 112.243C752.342 112.243 750.626 113.959 750.626 116.075C750.626 118.191 752.342 119.907 754.458 119.907Z" fill="#DD95C1"/>
<path d="M737.215 102.664C735.098 102.664 733.383 100.948 733.383 98.8318C733.383 96.7155 735.098 95 737.215 95C739.331 95 741.046 96.7155 741.046 98.8318C741.046 100.948 739.331 102.664 737.215 102.664Z" fill="#7FCCCB"/>
<path d="M790.86 110.327C789.802 110.327 788.944 109.469 788.944 108.411V106.496C788.944 105.437 789.802 104.58 790.86 104.58C791.918 104.58 792.776 105.437 792.776 106.496V108.411C792.776 109.469 791.919 110.327 790.86 110.327Z" fill="#2276BB"/>
<path d="M790.86 100.748C789.802 100.748 788.944 99.8899 788.944 98.8318V96.9159C788.944 95.8579 789.802 95 790.86 95C791.918 95 792.776 95.8579 792.776 96.9159V98.8318C792.776 99.8899 791.919 100.748 790.86 100.748Z" fill="#2276BB"/>
<path d="M796.608 104.579H794.692C793.634 104.579 792.776 103.722 792.776 102.663C792.776 101.605 793.634 100.748 794.692 100.748H796.608C797.666 100.748 798.524 101.605 798.524 102.663C798.524 103.722 797.667 104.579 796.608 104.579Z" fill="#2276BB"/>
<path d="M787.029 104.579H785.113C784.055 104.579 783.197 103.722 783.197 102.663C783.197 101.605 784.055 100.748 785.113 100.748H787.029C788.087 100.748 788.945 101.605 788.945 102.663C788.945 103.722 788.087 104.579 787.029 104.579Z" fill="#2276BB"/>
<path d="M712.189 150.561C711.974 149.741 711.783 148.914 711.604 148.071L706.623 168.51L707.006 173.183C707.841 183.145 712.121 192.506 719.109 199.655L747.26 189.014C747.106 188.966 746.947 188.932 746.794 188.88C729.724 182.48 716.822 168.193 712.189 150.561Z" fill="white"/>
<path d="M747.26 189.014C747.106 188.966 746.947 188.932 746.794 188.88C744.95 188.182 743.144 187.387 741.384 186.499L716.028 196.092C716.99 197.338 718.019 198.531 719.111 199.665L747.26 189.014Z" fill="#F6F6E7"/>
<path d="M777.449 117.951V127.571H767.829V117.951H777.449Z" fill="#C9DA53"/>
<path d="M742.962 152.478C741.904 152.477 741.047 151.619 741.047 150.561C741.047 150.018 741.277 149.501 741.681 149.138L760.84 131.895C761.64 131.202 762.85 131.29 763.542 132.09C764.215 132.868 764.154 134.039 763.403 134.742L744.244 151.985C743.892 152.302 743.436 152.477 742.962 152.478Z" fill="#FFBF41"/>
<path d="M798.524 144.814C797.466 144.814 796.608 143.956 796.608 142.898V140.982C796.608 139.924 797.466 139.066 798.524 139.066C799.582 139.066 800.44 139.924 800.44 140.982V142.898C800.44 143.956 799.583 144.814 798.524 144.814Z" fill="#FFDB43"/>
<path d="M805.299 142.007C804.791 142.008 804.303 141.806 803.945 141.446L802.59 140.091C801.855 139.33 801.876 138.117 802.637 137.382C803.379 136.665 804.557 136.665 805.299 137.382L806.654 138.737C807.402 139.485 807.402 140.698 806.653 141.446C806.294 141.805 805.807 142.007 805.299 142.007Z" fill="#FFDB43"/>
<path d="M808.104 135.234H806.188C805.13 135.234 804.272 134.376 804.272 133.318C804.272 132.26 805.13 131.402 806.188 131.402H808.104C809.162 131.402 810.02 132.26 810.02 133.318C810.02 134.376 809.162 135.234 808.104 135.234Z" fill="#FFDB43"/>
<path d="M803.945 129.816C802.887 129.816 802.029 128.958 802.029 127.9C802.029 127.392 802.231 126.905 802.59 126.546L803.945 125.191C804.706 124.456 805.919 124.477 806.654 125.238C807.371 125.981 807.371 127.158 806.654 127.9L805.299 129.255C804.94 129.614 804.453 129.816 803.945 129.816Z" fill="#FFDB43"/>
<path d="M798.524 127.571C797.466 127.571 796.608 126.713 796.608 125.655V123.739C796.608 122.681 797.466 121.823 798.524 121.823C799.582 121.823 800.44 122.681 800.44 123.739V125.655C800.44 126.713 799.583 127.571 798.524 127.571Z" fill="#FFDB43"/>
<path d="M793.104 129.816C792.596 129.816 792.109 129.614 791.75 129.255L790.395 127.9C789.66 127.139 789.681 125.926 790.442 125.191C791.185 124.474 792.362 124.474 793.104 125.191L794.459 126.546C795.207 127.294 795.207 128.507 794.458 129.255C794.099 129.614 793.612 129.816 793.104 129.816Z" fill="#FFDB43"/>
<path d="M706.56 96.916L709.52 102.915L716.14 103.877L711.35 108.546L712.48 115.138L706.56 112.025L700.64 115.138L701.77 108.546L696.98 103.877L703.6 102.915L706.56 96.916Z" fill="#FFDB43"/>
<path d="M809.414 198.778C808.503 195.548 806.405 192.783 803.54 191.036L802.751 189.852C798.325 183.233 791.365 178.732 783.513 177.412C782.465 177.262 781.495 177.99 781.346 179.038C781.201 180.05 781.877 180.997 782.881 181.19C788.544 182.151 793.705 185.028 797.501 189.34C794.31 189.914 791.519 191.831 789.837 194.603C787.774 198.299 789.097 202.967 792.793 205.03C796.488 207.094 801.157 205.771 803.22 202.075C804.008 200.554 804.434 198.87 804.464 197.157C806.502 200.118 806.665 203.984 804.883 207.106C804.343 208.016 804.643 209.192 805.553 209.732C806.464 210.271 807.639 209.971 808.179 209.061C808.196 209.032 808.213 209.003 808.228 208.972C809.969 205.869 810.396 202.198 809.414 198.778ZM799.879 200.205C798.856 202.058 796.525 202.731 794.672 201.709C792.82 200.686 792.147 198.355 793.169 196.502C793.175 196.492 793.181 196.481 793.186 196.471C794.317 194.62 796.224 193.379 798.375 193.095C798.708 193.086 799.038 193.163 799.333 193.318C800.95 194.22 801.036 198.132 799.879 200.205Z" fill="#2BB3CE"/>
<path d="M56.7029 141.774C71.5532 126.925 87.8366 119.133 93.0747 124.369C93.6495 124.971 94.0724 125.702 94.3085 126.5L94.3928 126.416L99.3953 146.916L104.377 167.355L110.282 191.557L114.02 206.884L91.8887 198.51L63.74 187.859L41.2835 179.362L41.3104 179.335C40.5586 179.095 39.8708 178.689 39.2987 178.145C34.0605 172.907 41.8526 156.624 56.7029 141.774Z" fill="#DD1C4B"/>
<path d="M56.7031 141.768C71.5529 126.918 87.8367 119.126 93.0742 124.363C98.3116 129.601 90.5193 145.884 75.6696 160.734C60.8198 175.584 44.536 183.376 39.2985 178.139C34.0611 172.901 41.8534 156.618 56.7031 141.768Z" fill="#D1E3EE"/>
<path d="M43.3221 180.025C46.0034 180.072 48.6637 179.544 51.1237 178.477L69.4782 185.422L97.6365 196.063L112.736 201.776L114.02 207.039L91.8887 198.665L63.74 188.014L43.1305 180.216L43.3221 180.025Z" fill="#B21D48"/>
<path d="M20.14 164.889C20.3694 164.889 20.597 164.848 20.8125 164.769C30.5389 161.125 41.0528 160.103 51.2986 161.807L58.1423 162.947C59.1898 163.096 60.1602 162.368 60.3097 161.32C60.4541 160.308 59.7785 159.361 58.7745 159.168L51.929 158.019C41.0192 156.206 29.8248 157.293 19.4675 161.17C18.4717 161.528 17.9547 162.626 18.3125 163.621C18.5888 164.391 19.3226 164.9 20.14 164.889Z" fill="#FFBF41"/>
<path d="M54.6266 153.394C55.6846 153.388 56.5374 152.525 56.5312 151.467C56.5269 150.736 56.1078 150.072 55.4504 149.754L15.216 130.594C14.2605 130.139 13.1172 130.545 12.6621 131.501C12.2071 132.456 12.6128 133.599 13.5684 134.054L53.8027 153.214C54.0604 153.334 54.3418 153.396 54.6266 153.394Z" fill="#FFBF41"/>
<path d="M77.0312 149.562C77.2838 149.562 77.5341 149.512 77.7669 149.414C78.7435 149.007 79.205 147.885 78.7976 146.908V146.908L76.0119 140.224C71.7257 129.982 70.7263 118.662 73.1514 107.827C73.4 106.799 72.7675 105.764 71.7391 105.515C70.7105 105.266 69.6755 105.899 69.4269 106.927C69.4214 106.95 69.4163 106.973 69.4115 106.996C66.8136 118.602 67.8848 130.728 72.477 141.699L75.2647 148.383C75.5621 149.096 76.2586 149.561 77.0312 149.562Z" fill="#FFBF41"/>
<path d="M10.5598 172.553C8.44348 172.553 6.72791 170.837 6.72791 168.721C6.72791 166.605 8.44348 164.889 10.5598 164.889C12.676 164.889 14.3916 166.605 14.3916 168.721C14.3916 170.837 12.676 172.553 10.5598 172.553Z" fill="#D5557E"/>
<path d="M56.5422 118.907C54.4259 118.907 52.7103 117.191 52.7103 115.075C52.7103 112.959 54.4259 111.243 56.5422 111.243C58.6584 111.243 60.374 112.959 60.374 115.075C60.374 117.191 58.6584 118.907 56.5422 118.907Z" fill="#DD95C1"/>
<path d="M73.7853 101.664C75.9017 101.664 77.6172 99.9482 77.6172 97.8318C77.6172 95.7155 75.9017 94 73.7853 94C71.669 94 69.9535 95.7155 69.9535 97.8318C69.9535 99.9482 71.669 101.664 73.7853 101.664Z" fill="#7FCCCB"/>
<path d="M20.1397 109.327C21.1978 109.327 22.0557 108.469 22.0557 107.411V105.496C22.0557 104.437 21.1978 103.58 20.1397 103.58C19.0817 103.58 18.2238 104.437 18.2238 105.496V107.411C18.2238 108.469 19.0814 109.327 20.1397 109.327Z" fill="#2276BB"/>
<path d="M20.1397 99.7478C21.1978 99.7478 22.0557 98.8899 22.0557 97.8318V95.9159C22.0557 94.8579 21.1978 94 20.1397 94C19.0817 94 18.2238 94.8579 18.2238 95.9159V97.8318C18.2238 98.8899 19.0814 99.7478 20.1397 99.7478Z" fill="#2276BB"/>
<path d="M14.3918 103.579H16.3077C17.3658 103.579 18.2236 102.722 18.2236 101.663C18.2236 100.605 17.3658 99.7476 16.3077 99.7476H14.3918C13.3337 99.7476 12.4759 100.605 12.4759 101.663C12.4759 102.722 13.3335 103.579 14.3918 103.579Z" fill="#2276BB"/>
<path d="M23.9714 103.579H25.8873C26.9454 103.579 27.8032 102.722 27.8032 101.663C27.8032 100.605 26.9454 99.7476 25.8873 99.7476H23.9714C22.9133 99.7476 22.0555 100.605 22.0555 101.663C22.0555 102.722 22.9131 103.579 23.9714 103.579Z" fill="#2276BB"/>
<path d="M98.8112 149.561C99.0258 148.741 99.2174 147.914 99.3956 147.071L104.377 167.51L103.994 172.183C103.159 182.145 98.879 191.506 91.8909 198.655L63.7403 188.014C63.8936 187.966 64.0526 187.932 64.2058 187.88C81.2755 181.48 94.1776 167.193 98.8112 149.561Z" fill="white"/>
<path d="M63.7403 188.014C63.8935 187.966 64.0526 187.932 64.2058 187.88C66.0499 187.182 67.8561 186.387 69.6164 185.499L94.9717 195.092C94.0104 196.338 92.9813 197.531 91.889 198.665L63.7403 188.014Z" fill="#F6F6E7"/>
<path d="M33.5511 116.951V126.571H43.1709V116.951H33.5511Z" fill="#C9DA53"/>
<path d="M68.0377 151.478C69.0958 151.477 69.9534 150.619 69.9531 149.561C69.9529 149.018 69.7227 148.501 69.3194 148.138L50.1602 130.895C49.3601 130.202 48.1502 130.29 47.4578 131.09C46.7846 131.868 46.8459 133.039 47.5967 133.742L66.7559 150.985C67.1075 151.302 67.5642 151.477 68.0377 151.478Z" fill="#FFBF41"/>
<path d="M12.4757 143.814C13.5337 143.814 14.3916 142.956 14.3916 141.898V139.982C14.3916 138.924 13.5337 138.066 12.4757 138.066C11.4176 138.066 10.5598 138.924 10.5598 139.982V141.898C10.5598 142.956 11.4174 143.814 12.4757 143.814Z" fill="#FFDB43"/>
<path d="M5.70078 141.007C6.20922 141.008 6.69706 140.806 7.05534 140.446L8.4099 139.091C9.1449 138.33 9.12406 137.117 8.36296 136.382C7.62054 135.665 6.44344 135.665 5.70078 136.382L4.34623 137.737C3.59806 138.485 3.59829 139.698 4.3467 140.446C4.7057 140.805 5.19282 141.007 5.70078 141.007Z" fill="#FFDB43"/>
<path d="M2.89619 134.234H4.81211C5.87017 134.234 6.72803 133.376 6.72803 132.318C6.72803 131.26 5.87017 130.402 4.81211 130.402H2.89619C1.83812 130.402 0.98027 131.26 0.98027 132.318C0.98027 133.376 1.83788 134.234 2.89619 134.234Z" fill="#FFDB43"/>
<path d="M7.05525 128.816C8.11332 128.816 8.97094 127.958 8.9707 126.9C8.9707 126.392 8.76881 125.905 8.40981 125.546L7.05525 124.191C6.29415 123.456 5.08138 123.477 4.34614 124.238C3.62911 124.981 3.62911 126.158 4.34614 126.9L5.70069 128.255C6.05993 128.614 6.54705 128.816 7.05525 128.816Z" fill="#FFDB43"/>
<path d="M12.4757 126.571C13.5337 126.571 14.3916 125.713 14.3916 124.655V122.739C14.3916 121.681 13.5337 120.823 12.4757 120.823C11.4176 120.823 10.5598 121.681 10.5598 122.739V124.655C10.5598 125.713 11.4174 126.571 12.4757 126.571Z" fill="#FFDB43"/>
<path d="M17.8956 128.816C18.4038 128.816 18.8909 128.614 19.2502 128.255L20.6047 126.9C21.3397 126.139 21.3189 124.926 20.5578 124.191C19.8154 123.474 18.6383 123.474 17.8956 124.191L16.5411 125.546C15.7929 126.294 15.7931 127.507 16.5415 128.255C16.9005 128.614 17.3877 128.816 17.8956 128.816Z" fill="#FFDB43"/>
<path d="M104.44 95.916L101.48 101.915L94.8603 102.877L99.6501 107.546L98.5197 114.138L104.44 111.025L110.36 114.138L109.23 107.546L114.02 102.877L107.4 101.915L104.44 95.916Z" fill="#FFDB43"/>
<path d="M1.5857 197.778C2.49696 194.548 4.59513 191.783 7.45991 190.036L8.24927 188.852C12.6753 182.233 19.6351 177.732 27.487 176.412C28.5346 176.262 29.505 176.99 29.6544 178.038C29.7988 179.05 29.1232 179.997 28.1193 180.19C22.4558 181.151 17.2946 184.028 13.4989 188.34C16.6901 188.914 19.4811 190.831 21.1626 193.603C23.226 197.299 21.9028 201.967 18.2073 204.03C14.5117 206.094 9.84332 204.771 7.77987 201.075C6.99171 199.554 6.56613 197.87 6.53643 196.157C4.49789 199.118 4.3348 202.984 6.11685 206.106C6.65666 207.016 6.35658 208.192 5.44651 208.732C4.53645 209.271 3.36103 208.971 2.82122 208.061C2.80398 208.032 2.78745 208.003 2.77165 207.972C1.03104 204.869 0.604027 201.198 1.5857 197.778ZM11.1212 199.205C12.1439 201.058 14.4748 201.731 16.3275 200.709C18.1804 199.686 18.8534 197.355 17.8308 195.502C17.825 195.492 17.8193 195.481 17.8135 195.471C16.6829 193.62 14.7758 192.379 12.6252 192.095C12.2921 192.086 11.9623 192.163 11.6673 192.318C10.0502 193.22 9.96402 197.132 11.1212 199.205Z" fill="#2BB3CE"/>
<defs>
<clipPath id="clip0">
<rect width="511" height="511" fill="white" transform="translate(132 136)"/>
</clipPath>
</defs>
</svg>
