<svg width="48" height="40" viewBox="0 0 68 60" fill="none" xmlns="http://www.w3.org/2000/svg">
<g clip-path="url(#clip0)">
<path d="M33.5154 28.5067C38.0155 28.5067 41.9122 27.1021 45.0961 24.3308C48.2799 21.56 49.8939 18.1697 49.8939 14.2529C49.8939 10.3375 48.2799 6.94676 45.0956 4.17501C41.9112 1.40461 38.015 0 33.5154 0C29.0149 0 25.1192 1.40461 21.9353 4.17546C18.7515 6.94631 17.137 10.3371 17.137 14.2529C17.137 18.1697 18.7515 21.5604 21.9359 24.3313C25.1202 27.1017 29.0164 28.5067 33.5154 28.5067Z" fill="#E5D9FF"/>
<path d="M62.1734 45.5057C62.0815 44.3526 61.8958 43.0947 61.6224 41.7664C61.3464 40.4281 60.991 39.163 60.5656 38.0067C60.1262 36.8116 59.5285 35.6314 58.7898 34.5004C58.023 33.3265 57.1223 32.3043 56.1117 31.4632C55.0549 30.5832 53.761 29.8757 52.2648 29.3596C50.7738 28.8463 49.1214 28.5862 47.3539 28.5862C46.6597 28.5862 45.9884 28.8341 44.6919 29.5687C43.894 30.0215 42.9607 30.5453 41.9189 31.1245C41.0282 31.6185 39.8214 32.0813 38.3309 32.5003C36.8767 32.9098 35.4002 33.1175 33.9429 33.1175C32.4856 33.1175 31.0096 32.9098 29.5539 32.5003C28.0649 32.0817 26.8582 31.6189 25.9685 31.125C24.9366 30.5511 24.0027 30.0274 23.1929 29.5682C21.898 28.8336 21.2261 28.5858 20.532 28.5858C18.7639 28.5858 17.1121 28.8463 15.6216 29.3601C14.1264 29.8752 12.832 30.5827 11.7741 31.4636C10.764 32.3052 9.86288 33.3269 9.09714 34.5004C8.35889 35.6314 7.76123 36.8112 7.32129 38.0072C6.89639 39.1635 6.54102 40.4281 6.26501 41.7664C5.99161 43.0929 5.80588 44.3512 5.71405 45.507C5.62378 46.6394 5.57812 47.8146 5.57812 49.0016C5.57812 52.0908 6.70651 54.5916 8.93164 56.436C11.1293 58.256 14.0371 59.1793 17.5733 59.1793H50.3157C53.8518 59.1793 56.7587 58.2565 58.9568 56.436C61.1825 54.593 62.3109 52.0917 62.3109 49.0012C62.3103 47.8088 62.2642 46.6326 62.1734 45.5057Z" fill="#E5D9FF"/>
</g>
<defs>
<clipPath id="clip0">
<rect width="68" height="59.1791" fill="white"/>
</clipPath>
</defs>
</svg>
