<svg width="47" height="42" viewBox="0 0 47 42" fill="none" xmlns="http://www.w3.org/2000/svg">
<g clip-path="url(#clip0)">
<rect x="11" y="4" width="23" height="26" fill="white"/>
<path d="M46.0316 6.572C45.49 4.00214 43.9025 1.97636 41.8893 1.28438C38.2114 0 23.4995 0 23.4995 0C23.4995 0 8.78813 0 5.11023 1.23568C3.13573 1.92693 1.50949 4.00251 0.967885 6.572C0 11.2658 0 21 0 21C0 21 0 30.7833 0.967885 35.428C1.51006 37.9975 3.097 40.0233 5.11051 40.7153C8.82686 42 23.5 42 23.5 42C23.5 42 38.2114 42 41.8893 40.7643C43.9028 40.0727 45.49 38.0469 46.0322 35.4774C46.9998 30.7833 46.9998 21.0494 46.9998 21.0494C46.9998 21.0494 47.0385 11.2658 46.0316 6.572ZM18.8155 29.9928V12.0072L31.0492 21L18.8155 29.9928Z" fill="#FF0000"/>
</g>
<defs>
<clipPath id="clip0">
<rect width="47" height="42" fill="white"/>
</clipPath>
</defs>
</svg>
