<svg width="55" height="59" viewBox="0 0 55 59" fill="none" xmlns="http://www.w3.org/2000/svg">
<rect x="18.6456" y="15.1532" width="23" height="26" fill="white"/>
<path d="M51.5763 16.1367C50.9965 13.8034 49.2969 11.9641 47.1417 11.3358C43.2042 10.1697 27.4542 10.1697 27.4542 10.1697C27.4542 10.1697 11.7049 10.1697 7.76744 11.2916C5.65362 11.9192 3.91263 13.8038 3.33281 16.1367C2.29663 20.3984 2.29663 29.2366 2.29663 29.2366C2.29663 29.2366 2.29663 38.1193 3.33281 42.3365C3.91324 44.6694 5.61216 46.5088 7.76775 47.137C11.7463 48.3035 27.4549 48.3035 27.4549 48.3035C27.4549 48.3035 43.2042 48.3035 47.1417 47.1816C49.2973 46.5536 50.9965 44.7143 51.5769 42.3814C52.6128 38.1193 52.6128 29.2815 52.6128 29.2815C52.6128 29.2815 52.6542 20.3984 51.5763 16.1367ZM22.4398 37.4016V21.0716L35.5367 29.2366L22.4398 37.4016Z" fill="#FF0000"/>
</svg>
